<?xml version="1.0" encoding="UTF-8"?>
<svg xmlns="http://www.w3.org/2000/svg" width="16" height="16" version="1.1" viewBox="0 0 16 16">
  <defs>
    <style>
      .cls-1 {
        fill: #000;
      }

      .cls-1,
      .cls-2 {
        stroke-width: 0px;
      }

      .cls-2 {
        fill: #fff;
      }
    </style>
  </defs>
  <g id="Réteg_1" data-name="Réteg 1">
    <path class="cls-1" d="M16,8C16,3.6,12.4,0,8,0S0,3.6,0,8s3.6,8,8,8,8-3.6,8-8" />
  </g>
  <g id="Réteg_2" data-name="Réteg 2">
    <path class="cls-2 jumping"
      d="M8.5,11.5c0,.3-.2.5-.5.5s-.5-.2-.5-.5v-5.8l-2.1,2.1c-.2.2-.5.2-.7,0s-.2-.5,0-.7l3-3c.2-.2.5-.2.7,0,0,0,0,0,0,0l3,3c.2.2.2.5,0,.7s-.5.2-.7,0l-2.1-2.1v5.8Z" />
  </g>
</svg>