<?xml version="1.0" encoding="UTF-8"?>
<svg id="Réteg_1" data-name="Réteg 1" xmlns="http://www.w3.org/2000/svg" version="1.1" viewBox="0 0 180 120">
  <defs>
    <style>
      .cls-1 {
        fill: #353b40;
      }

      .cls-1,
      .cls-2,
      .cls-3,
      .cls-4,
      .cls-5,
      .cls-6,
      .cls-7,
      .cls-8,
      .cls-9,
      .cls-10,
      .cls-11,
      .cls-12,
      .cls-13,
      .cls-14,
      .cls-15,
      .cls-16,
      .cls-17,
      .cls-18,
      .cls-19,
      .cls-20,
      .cls-21,
      .cls-22,
      .cls-23,
      .cls-24,
      .cls-25,
      .cls-26,
      .cls-27,
      .cls-28,
      .cls-29,
      .cls-30,
      .cls-31,
      .cls-32,
      .cls-33,
      .cls-34,
      .cls-35,
      .cls-36,
      .cls-37,
      .cls-38,
      .cls-39,
      .cls-40,
      .cls-41,
      .cls-42,
      .cls-43,
      .cls-44,
      .cls-45,
      .cls-46,
      .cls-47,
      .cls-48,
      .cls-49,
      .cls-50,
      .cls-51,
      .cls-52,
      .cls-53,
      .cls-54,
      .cls-55,
      .cls-56,
      .cls-57,
      .cls-58,
      .cls-59,
      .cls-60,
      .cls-61,
      .cls-62,
      .cls-63,
      .cls-64,
      .cls-65,
      .cls-66,
      .cls-67,
      .cls-68,
      .cls-69,
      .cls-70,
      .cls-71,
      .cls-72,
      .cls-73,
      .cls-74,
      .cls-75,
      .cls-76,
      .cls-77,
      .cls-78,
      .cls-79,
      .cls-80,
      .cls-81,
      .cls-82,
      .cls-83,
      .cls-84,
      .cls-85,
      .cls-86,
      .cls-87,
      .cls-88,
      .cls-89,
      .cls-90,
      .cls-91,
      .cls-92,
      .cls-93,
      .cls-94,
      .cls-95,
      .cls-96,
      .cls-97,
      .cls-98,
      .cls-99,
      .cls-100,
      .cls-101 {
        fill-rule: evenodd;
      }

      .cls-1,
      .cls-2,
      .cls-3,
      .cls-4,
      .cls-5,
      .cls-6,
      .cls-7,
      .cls-8,
      .cls-9,
      .cls-10,
      .cls-11,
      .cls-12,
      .cls-13,
      .cls-14,
      .cls-15,
      .cls-16,
      .cls-17,
      .cls-18,
      .cls-19,
      .cls-20,
      .cls-21,
      .cls-22,
      .cls-23,
      .cls-24,
      .cls-25,
      .cls-26,
      .cls-27,
      .cls-28,
      .cls-29,
      .cls-30,
      .cls-31,
      .cls-32,
      .cls-33,
      .cls-34,
      .cls-35,
      .cls-36,
      .cls-37,
      .cls-38,
      .cls-39,
      .cls-40,
      .cls-41,
      .cls-42,
      .cls-43,
      .cls-44,
      .cls-45,
      .cls-46,
      .cls-47,
      .cls-48,
      .cls-49,
      .cls-50,
      .cls-51,
      .cls-52,
      .cls-53,
      .cls-54,
      .cls-55,
      .cls-56,
      .cls-57,
      .cls-58,
      .cls-59,
      .cls-60,
      .cls-61,
      .cls-62,
      .cls-63,
      .cls-64,
      .cls-65,
      .cls-66,
      .cls-67,
      .cls-68,
      .cls-69,
      .cls-70,
      .cls-71,
      .cls-72,
      .cls-74,
      .cls-75,
      .cls-76,
      .cls-77,
      .cls-78,
      .cls-79,
      .cls-80,
      .cls-81,
      .cls-82,
      .cls-83,
      .cls-84,
      .cls-85,
      .cls-86,
      .cls-87,
      .cls-88,
      .cls-89,
      .cls-90,
      .cls-91,
      .cls-92,
      .cls-93,
      .cls-94,
      .cls-95,
      .cls-96,
      .cls-97,
      .cls-98,
      .cls-99,
      .cls-100,
      .cls-101 {
        stroke-width: 0px;
      }

      .cls-2 {
        fill: #363c45;
      }

      .cls-3 {
        fill: #282c30;
        opacity: 1;
      }

      .cls-3,
      .cls-8,
      .cls-28,
      .cls-30,
      .cls-50,
      .cls-53,
      .cls-59,
      .cls-66,
      .cls-73 {
        isolation: isolate;
      }

      .cls-4 {
        fill: #5a5c5f;
      }

      .cls-5 {
        fill: #262c31;
      }

      .cls-6 {
        fill: #2b3237;
      }

      .cls-7 {
        fill: #33343a;
      }

      .cls-8 {
        fill: #252930;
        opacity: 1;
      }

      .cls-9 {
        fill: #263034;
      }

      .cls-10 {
        fill: #88888b;
      }

      .cls-11 {
        fill: #999ba2;
      }

      .cls-12 {
        fill: #86888a;
      }

      .cls-13 {
        fill: #b3b5b9;
      }

      .cls-14 {
        fill: #74787b;
      }

      .cls-15 {
        fill: #242c31;
      }

      .cls-16 {
        fill: #575a60;
      }

      .cls-17 {
        fill: #8d9092;
      }

      .cls-18 {
        fill: #2b2e34;
      }

      .cls-19 {
        fill: #878a8f;
      }

      .cls-20 {
        fill: #35383f;
      }

      .cls-21 {
        fill: #212934;
      }

      .cls-22 {
        fill: #26292f;
      }

      .cls-23 {
        fill: #808181;
      }

      .cls-24 {
        fill: #5a5f66;
      }

      .cls-25 {
        fill: #252729;
      }

      .cls-26 {
        fill: #34373f;
      }

      .cls-27 {
        fill: #24282d;
      }

      .cls-28 {
        fill: #202731;
        opacity: 1;
      }

      .cls-29 {
        fill: #575c60;
      }

      .cls-30 {
        fill: #26272c;
        opacity: .8;
      }

      .cls-31 {
        fill: #23272c;
      }

      .cls-32 {
        fill: #9a9899;
      }

      .cls-33 {
        fill: #747a81;
      }

      .cls-34 {
        fill: #2d343c;
      }

      .cls-35 {
        fill: #d6dadc;
      }

      .cls-36 {
        fill: #5f6263;
      }

      .cls-37 {
        fill: #9da0a2;
      }

      .cls-38 {
        fill: #272d34;
      }

      .cls-39 {
        fill: #cbcbcc;
      }

      .cls-40 {
        fill: #282d35;
      }

      .cls-41 {
        fill: #7f8187;
      }

      .cls-42 {
        fill: #2a2d35;
      }

      .cls-43 {
        fill: #2b3238;
      }

      .cls-44 {
        fill: #272c33;
      }

      .cls-45 {
        fill: #8b8d91;
      }

      .cls-46 {
        fill: #272a32;
      }

      .cls-47 {
        fill: #4b4c52;
      }

      .cls-48 {
        fill: #212e34;
      }

      .cls-49 {
        fill: #262a2e;
      }

      .cls-50 {
        fill: #2a2e31;
        opacity: .5;
      }

      .cls-51 {
        fill: #22282f;
      }

      .cls-52 {
        fill: #212529;
      }

      .cls-53 {
        fill: #20262f;
        opacity: .9;
      }

      .cls-54 {
        fill: #232930;
      }

      .cls-55 {
        fill: #262b2d;
      }

      .cls-56 {
        fill: #747678;
      }

      .cls-57 {
        fill: #2b3039;
      }

      .cls-58 {
        fill: #272b36;
      }

      .cls-59 {
        fill: #22252a;
        opacity: .6;
      }

      .cls-60 {
        fill: #9fa1a5;
      }

      .cls-61 {
        fill: #9e9e9e;
      }

      .cls-62 {
        fill: #7f8388;
      }

      .cls-63 {
        fill: #67686a;
      }

      .cls-64 {
        fill: #313334;
      }

      .cls-65 {
        fill: #6e7577;
      }

      .cls-66 {
        fill: #1e272d;
        opacity: .6;
      }

      .cls-67 {
        fill: #a5a7a9;
      }

      .cls-68 {
        fill: #292b35;
      }

      .cls-69 {
        fill: #2b2f35;
      }

      .cls-70 {
        fill: #484a4f;
      }

      .cls-71 {
        fill: #adaeb4;
      }

      .cls-72 {
        fill: #1d242a;
      }

      .cls-73 {
        fill: #fff;
        stroke: #1d1d1b;
        stroke-miterlimit: 10;
        stroke-width: .2px;
      }

      .left {
        clip-path: inset(0 0 0 100%);
        transform-origin: center;

      }

      @keyframes loadAndPopOff {
        0% {
          clip-path: inset(0 0 0 100%);
          transform: scale(0.8);
          /* Start slightly smaller for the burst effect */
        }

        50% {
          clip-path: inset(0 0 0 0);
        }

        100% {
          clip-path: inset(0 100% 0 0);
          transform: scale(1);
          /* End at normal size to avoid the reverse effect */
          /* Fully hidden again */
        }
      }

      .right {
        clip-path: inset(0 100% 0 0);
        transform-origin: center;

      }

      @keyframes loadAndPopOffRight {
        0% {
          clip-path: inset(0 100% 0 0);
          transform: scale(0.8);
          /* Start slightly smaller for the burst effect */
        }

        50% {
          clip-path: inset(0 0 0 0);
        }

        100% {
          clip-path: inset(0 0 0 100%);
          transform: scale(1);
        }
      }

      .cls-74 {
        fill: #6d7275;
      }

      .cls-75 {
        fill: #242931;
      }

      .cls-76 {
        fill: #2d343a;
      }

      .cls-77 {
        fill: #56585a;
      }

      .cls-78 {
        fill: #1c2025;
        fill-opacity: 0;
      }

      .cls-79 {
        fill: #88888c;
      }

      .cls-80 {
        fill: #232b33;
      }

      .cls-81 {
        fill: #292f39;
      }

      .cls-82 {
        fill: #25292f;
      }

      .cls-83 {
        fill: #849097;
      }

      .cls-84 {
        fill: #1c2128;
      }

      .cls-85 {
        fill: #212932;
      }

      .cls-86 {
        fill: #262e34;
      }

      .cls-87 {
        fill: #73747d;
      }

      .cls-88 {
        fill: #fcfcfc;
      }

      .cls-89 {
        fill: #242a30;
      }

      .cls-90 {
        fill: #74777a;
      }

      .cls-91 {
        fill: #505051;
      }

      .cls-92 {
        fill: #4c5159;
      }

      .cls-93 {
        fill: #303237;
      }

      .cls-94 {
        fill: #202832;
      }

      .cls-95 {
        fill: #737479;
      }

      .cls-96 {
        fill: #252b33;
      }

      .cls-97 {
        fill: #2c2e34;
      }

      .cls-98 {
        fill: #2f3439;
      }

      .cls-99 {
        fill: #2d313c;
      }

      .cls-100 {
        fill: #bbbdc2;
      }

      .cls-101 {
        fill: #1f282e;
      }
    </style>
  </defs>
  <path class="cls-78"
    d="M130.9,22.9c.6,0,1.2,0,1.8.1,0,.7-.2,1.3-.6,1.9-5.3,6.6-10.6,13.1-15.9,19.7-.4.5-.7,1.1-1.1,1.6-1.3,1.5-2.6,3.1-3.7,4.8-5.3,7.7-10.2,15.6-14.6,23.8-.3.9-.7,1.7-1.2,2.6-4.3,7.7-8.5,15.6-12.4,23.6l-.4.4c-1,.1-2,0-2.9-.1-1.1-.7-2-1.6-2.9-2.5-2.9-3.3-5.6-6.8-8.1-10.5-2.7-3.4-5.3-6.7-8.1-10-3-3.2-6.1-6.3-9.3-9.4-.6-.6-1.3-1.1-2-1.6-.1,0-.2,0-.4,0,0-.2-.1-.4-.2-.6.3-.8.7-1.6,1.2-2.2,0,0,0,0-.1-.1,2.4-3.8,5.4-7.1,8.8-10,1.1-.8,2.3-1.6,3.5-2.2.5-.1,1,0,1.5.2,2.5,2.6,5.1,5.3,7.7,7.9,1.6,1.9,3.2,3.8,4.8,5.7.6.8,1.1,1.6,1.6,2.5.2,0,.4,0,.6-.1.1-.4.2-.8.4-1.2,1.5-2.7,3.1-5.4,5-7.9,2.4-2.7,4.7-5.5,6.9-8.4,1.9-2.1,3.8-4.3,5.6-6.4.9-1,1.9-1.8,2.9-2.6.2-.5.6-1,1.1-1.3,2.9-2.5,5.9-5,8.9-7.4,4.6-3.2,9.6-5.9,14.9-8,2.2-.7,4.5-1.4,6.7-2.1Z" />
  <path class="cls-88"
    d="M131.9,23c.2,0,.4.2.5.4-.2.6-.5,1.2-.9,1.7-5,6.2-10.1,12.5-15.1,18.8-6.3,8.4-12.1,17.1-17.3,26.2-3.9,7.3-7.8,14.6-11.7,21.9-1.4,3-2.9,5.9-4.5,8.8-.2.4-.6.5-1,.5-.9,0-1.7-.2-2.5-.8-1.5-1.2-2.9-2.5-4-4-2-2.6-3.9-5.2-5.7-7.9-2.9-3.7-5.9-7.3-8.9-10.9-2.6-2.7-5.2-5.3-7.8-7.9-1.2-1-2.4-2.1-3.6-3.1,0-.2,0-.3,0-.5,2.8-5.5,6.8-9.9,11.9-13.3.6-.3,1.1-.6,1.6-.9.3,0,.6.2.8.4,2.1,2.2,4.2,4.3,6.3,6.4,2.8,3,5.5,6.3,7.9,9.6.2.1.4.2.6,0,1.7-3.4,3.7-6.7,6-9.7,2.3-2.6,4.4-5.2,6.4-8,1.3-1.4,2.5-2.9,3.8-4.3,4.9-5.4,10.2-10.1,16.1-14.4,2.9-1.9,5.9-3.6,9-5.2,3.9-1.7,7.9-3,12.1-4Z" />
  <path class="cls-11" d="M90.8,79.7c-.2.3-.4.4-.7.6-.2,0-.3-.2-.2-.5.3.2.6,0,.9-.2,0,0,0,0,0,.1Z" />
  <path class="cls-90"
    d="M91.4,80c0,0-.2-.1-.2-.2,0,.1,0,.2-.1.4-.1,0-.1-.2-.1-.4.1-.3.3-.5.6-.6.3,0,.5,0,.7-.4.1,0,.2,0,.4,0-.1.2-.2.3-.3.5-.3.2-.6.5-.9.7Z" />
  <path class="cls-68"
    d="M81.4,76.2c-1.8,1.2-3.7,2.5-5.4,3.9-.1,0-.3-.1-.4-.2.1-.3.3-.6.6-.8,1.2-.9,2.4-1.8,3.8-2.5.4,0,.7-.1.9-.4.2,0,.4,0,.6,0Z" />
  <path class="cls-44"
    d="M95,74.1c.1.1.1.3,0,.5-1.4,1.7-3.2,3-5.2,3.8,0-.3,0-.6,0-.8-3.3,1.6-6.5,3.5-9.6,5.8-.2,0-.4,0-.6,0,0-.2,0-.3.1-.5,1.3-1.1,2.8-2.1,4.2-3,2.2-1.3,4.5-2.6,6.8-3.8.3-.1.7-.2,1.1-.2,1-.6,2.1-1.2,3-1.8Z" />
  <path class="cls-69"
    d="M86.1,76.1c.2,0,.2,0,.2.2-1.7,1.1-3.4,2.3-5,3.5-.3.1-.6.2-.9.3,0-.1,0-.2,0-.4,1.7-1.5,3.6-2.7,5.7-3.6Z" />
  <path class="cls-64" d="M70.5,76.8h.5c-.1.5-.4.9-.8,1.2-.5.3-1,.6-1.5.8-.3,0-.4-.1-.2-.4.7-.6,1.3-1.1,2-1.6Z" />
  <path class="cls-17" d="M64.4,76.8c0,0,.2-.1.4-.1.2,0,.3,0,.4.2-.2,0-.5-.1-.7-.1Z" />
  <path class="cls-99"
    d="M79.1,74.2c.1,0,.2,0,.2.1-.1.1-.1.2,0,.2-2.3,1.8-4.7,3.5-7,5.2-.4.2-.9.4-1.3.7-.2,0-.3,0-.5,0,.2-.2.4-.4.6-.6,2.6-2,5.2-3.8,8-5.6Z" />
  <path class="cls-91" d="M68.8,75.2c0,.2.2.2.4.2-.6.4-1.2.8-1.9,1.1-.2,0-.4,0-.6-.1.6-.6,1.3-1,2.1-1.2Z" />
  <path class="cls-95"
    d="M86.3,76.3c0-.2,0-.2-.2-.2.4-.3.9-.6,1.4-.8.2.1.2.3.1.4-.3.2-.7.4-1,.6,0,0,0-.2-.1-.2,0,.1,0,.2-.2.2Z" />
  <path class="cls-24" d="M81.5,75.6c0,.2.2.3.4.3-.1.2-.3.3-.5.3-.2-.1-.4-.2-.6,0-.2.3-.6.4-.9.4.5-.4,1.1-.7,1.6-.9Z" />
  <path class="cls-63" d="M81.5,75.6c.3-.3.7-.5,1.1-.6,0,0,.2,0,.2.2-.1.2-.3.3-.5.4-.3-.1-.5-.1-.8,0Z" />
  <path class="cls-61" d="M88.3,74.8c.3.1.3.3,0,.5,0,0-.2-.1-.3-.2.1,0,.2-.2.2-.3Z" />
  <path class="cls-23" d="M70.3,74.5c.2.1.4.2.6.1-.6.2-1.2.5-1.8.8-.2,0-.3,0-.4-.2.5-.3,1-.6,1.5-.7Z" />
  <path class="cls-58" d="M77.7,72.7h.4c0,.2,0,.4-.1.5-1.1.8-2.3,1.5-3.5,2.2-.2-.2-.1-.5.1-.6,1-.7,2.1-1.4,3.2-2.1Z" />
  <path class="cls-32" d="M89.7,74.1c.1,0,.3,0,.4.2-.2.1-.4.3-.5.5,0-.3,0-.5.2-.7Z" />
  <path class="cls-79"
    d="M79.3,74.6c-.1,0-.1-.1,0-.2,0,0-.1-.1-.2-.1.5-.4,1-.8,1.6-1.1,0,0,.2,0,.2.2-.1.1-.2.2-.3.4,0,0-.1,0-.2-.1-.4.4-.8.7-1.2.9Z" />
  <path class="cls-1" d="M71.8,73.4c.4,0,.5.2.4.5-.4.3-.8.5-1.3.7-.2,0-.4,0-.6-.1.5-.4,1-.7,1.5-1.1Z" />
  <path class="cls-6"
    d="M58.7,69.9c1.7,1.5,3.2,3.2,4.5,5-.2,0-.5,0-.7,0-1.4-1.5-2.8-3.1-4.1-4.6,0-.2,0-.3.2-.1,0-.1,0-.2.2-.2Z" />
  <path class="cls-39"
    d="M73.9,72.5c0,.1-.1.2-.2.3,0,0,.1,0,.2,0-.6.4-1.2.7-1.8,1.1.1-.3,0-.5-.4-.5,0-.1,0-.2.1-.3.7-.2,1.3-.5,1.9-.8,0,0,0,0,0,.1Z" />
  <path class="cls-82"
    d="M95.4,71.5h.2c-.8,1.1-1.8,2-3,2.7-.2,0-.2-.2-.2-.4.2-.7.6-1.3,1.1-1.9.2,0,.4,0,.5.1.1,0,.2-.2.2-.4,0,.1.1.3.2.4.3,0,.6-.2.8-.5,0,0,.2,0,.2-.1Z" />
  <path class="cls-77" d="M73.9,72.8c0,0-.2,0-.2,0,.1,0,.2-.2.2-.3.1,0,.1-.2.1-.4h.5c0,.4-.2.6-.6.7Z" />
  <path class="cls-75"
    d="M95.8,65.1c.1,0,.2,0,.2.1-.2.2-.4.4-.6.7-2.2,1.1-4.4,2.3-6.4,3.7-.3.2-.6.3-.9.4-.7,1.2-1.5,2.4-2.3,3.5-.3.4-.6.6-1,.8-.1-.2-.1-.4,0-.6,2.2-3.2,4.5-6.4,6.8-9.5.2-.2.5-.3.8-.2,0,.2,0,.4,0,.6-1,1.3-2,2.6-2.9,3.9,1.3-.7,2.6-1.4,3.9-2.2.9-.4,1.8-.8,2.6-1.1Z" />
  <path class="cls-29"
    d="M95.1,71.7c-.2.2-.5.4-.8.5-.1,0-.2-.2-.2-.4,0,.1-.1.3-.2.4-.2-.1-.3-.1-.5-.1.5-.2,1-.5,1.5-.7.2,0,.2.2.2.4Z" />
  <path class="cls-18"
    d="M92.7,69.4c.2,0,.4.2.6.2-1.5.9-3,1.8-4.6,2.6-.3.2-.7.3-1.1.3,0-.1,0-.2,0-.4,1.6-1.1,3.2-2,5-2.8Z" />
  <path class="cls-36" d="M95.6,71.5h-.2v-.5c.3,0,.5-.2.8-.4.2.1.2.3,0,.5-.2.1-.4.2-.5.4Z" />
  <path class="cls-4"
    d="M96.8,67.7c-.2.2-.5.4-.7.6,0,0-.1,0-.2-.1-.3.4-.6.7-.9,1.1.1-.2.1-.3,0-.5-.2.2-.5.3-.8.3,0,0-.1.2-.1.3-.3,0-.6.2-.8.4-.2,0-.4-.2-.6-.2,1.3-.7,2.7-1.3,4.1-1.8Z" />
  <path class="cls-10"
    d="M56.5,67.6c.4.7.9,1.2,1.5,1.5,0,.1,0,.2.1.4h.1c.1.1.3.3.5.5,0,0-.1.1-.2.2-.1-.1-.2-.1-.2.1-.1-.2-.4-.4-.6-.5,0-.2,0-.4,0-.5-.2-.3-.4-.4-.8-.5h-.1c-.3-.2-.6-.5-.9-.8,0-.1,0-.2.1-.2.1,0,.1,0,0,.2.1,0,.2,0,.4,0v-.4Z" />
  <path class="cls-55"
    d="M73.9,67.6h.4c0,.3,0,.6-.2.8-1.6,1.6-3.5,3-5.5,4.1-.1,0-.2,0-.3-.2.2-.3.4-.5.7-.8,1.8-1.2,3.4-2.5,4.9-3.9Z" />
  <path class="cls-13" d="M95,69.2c0,.1-.2.2-.2.4-.1-.4-.4-.5-.7-.2,0-.1,0-.2.1-.3.3,0,.5-.1.8-.3.2.1.2.3,0,.5Z" />
  <path class="cls-94"
    d="M88.9,63.9c.1,0,.3,0,.4.1-1.5,2.4-3.2,4.6-5,6.7-.2.2-.4.2-.6,0,1.3-1.8,2.6-3.6,3.9-5.4.5-.5.9-.9,1.3-1.4Z" />
  <path class="cls-52"
    d="M96.8,67.7c.2,0,.4.2.6.3-.1.4-.4.6-.7.8h.1c-.2.4-.3.6-.5.8-.5.4-1,.7-1.5,1,0,0-.2,0-.3,0,.2-.3.3-.6.2-1,0-.1.2-.2.2-.4.3-.3.6-.7.9-1.1,0,0,.1,0,.2.1.2-.2.5-.4.7-.6Z" />
  <path class="cls-69"
    d="M60.6,65.1c.4.4.8.9,1.2,1.3.4.2.7.5,1,.8,0,0,0,0,0-.1,1.4,1.2,2.7,2.5,4,3.9.2.3.5.6.6.9,0,.1-.2.3-.3.4-1.5-1.4-3-2.8-4.5-4.2-.9.5-1.8,1-2.6,1.5-.2-.1-.2-.3-.2-.5.8-.5,1.6-1.1,2.3-1.6-.7-.7-1.4-1.3-2.1-2,0-.3-.2-.5-.4-.7h.1c.2,0,.5.2.7.4Z" />
  <path class="cls-22"
    d="M72.2,64.4c.2,0,.4.1.5.4-1,1.8-2.4,3.3-4.2,4.4-.2,0-.3,0-.5,0,0-.1,0-.2,0-.4,1.6-1.3,3-2.8,4.2-4.5Z" />
  <path class="cls-98"
    d="M67.6,63.7c.1,0,.2.2.2.4-.8.9-1.8,1.6-2.8,2.2.5.6,1.1,1.2,1.6,1.8.1.2.2.5.2.7-.3,0-.6,0-.8-.3-.7-.8-1.4-1.6-2.2-2.3-.2-.2-.3-.5-.4-.8,0-.3.2-.4.5-.3.3.3.5.5.8.8.9-.8,1.9-1.5,2.9-2.1Z" />
  <path class="cls-60"
    d="M60.6,65.1c0,0,0-.1.1-.1.2.2.5.3.8.4-.1,0-.1.2,0,.3.5.4,1,.9,1.3,1.4,0,0,0,0,0,.1-.3-.3-.6-.6-1-.8-.4-.4-.8-.9-1.2-1.3Z" />
  <path class="cls-72"
    d="M99.4,64.2c.1,0,.1.2,0,.4,0,.1.1.2.2.2-.4.6-.8,1.1-1.4,1.5-.7.1-.9-.1-.5-.8.2-.4.5-.8.8-1.2.3-.1.6-.1.9-.1Z" />
  <path class="cls-20"
    d="M59.2,62.2c0,0,.1,0,.1.2-.2.2-.2.4-.2.6-.1,0-.2,0-.2.2.2.4.5.6.8.8.1,0,.1.2.1.4.2,0,.3,0,.5,0,.7-.4,1.3-.8,2-1.2.1.3.3.3.5,0h-.1c.2-.2.3-.2.5-.2,0,.2,0,.3-.2.4-.7.5-1.4,1-2.1,1.6,0,0-.1,0-.1.1-.3-.1-.5-.3-.7-.5h-.1c.2.3.3.6.4.8-.7.5-1.4,1-2.1,1.6-.2,0-.4,0-.6,0,.6-.8,1.3-1.5,2.2-2.1l-1.2-1.2c-.1,0-.2,0-.4,0-.8.7-1.6,1.5-2.5,2.2-.2.2-.4.2-.6.2.5.5.9.9,1.4,1.4v.4c-.1,0-.2,0-.4,0,.1,0,.1-.1,0-.2,0,0-.1.1-.1.2-.5-.4-1-.8-1.5-1.3-.2-.3-.2-.5,0-.8.2,0,.5-.2.7-.3,1-1,2.1-2,3.2-3,.3-.2.5-.3.8-.4Z" />
  <path class="cls-37" d="M95.8,65.1c.2-.2.4-.1.6,0-.2.3-.6.6-.9.8.2-.3.3-.5.6-.7,0,0-.1-.1-.2-.1Z" />
  <path class="cls-57" d="M70.6,63.3c.2,0,.3.2.4.4-.9,1.2-1.9,2.1-3.2,2.9-.4,0-.5-.3-.2-.6,1-.9,2-1.8,3-2.7Z" />
  <path class="cls-40"
    d="M89,55.8c.6,0,.7.2.4.7-3.2,4.9-6.3,9.9-9.1,15-.2.5-.5.7-1,.6.6-1.3,1.2-2.5,1.8-3.8,2.5-4.3,5.2-8.4,7.9-12.5Z" />
  <path class="cls-47"
    d="M55.4,63.1c-.2.3-.5.5-.8.6-.2.2-.4.4-.5.6-.1.1-.3.1-.5.1,0-.7.2-1.3.8-1.6.2.1.3,0,.4-.1,0,.3.2.4.5.4Z" />
  <path class="cls-87"
    d="M99.6,64.7c-.1,0-.2-.1-.2-.2.1-.1.1-.3,0-.4,0-.2,0-.3.2-.4.3,0,.6-.2.9-.4,0,0,.1.1.2.2-.3.4-.7.8-1.1,1.2Z" />
  <path class="cls-71" d="M59,63c0,.1-.1.2,0,.4h.1c.2.1.4.4.5.7-.3-.2-.6-.5-.8-.8,0-.1.1-.2.2-.2Z" />
  <path class="cls-41" d="M63,63c-.2,0-.3,0-.5,0h.1c-.2.4-.3.3-.5,0,.2-.1.4-.3.6-.4.1,0,.2.1.2.2Z" />
  <path class="cls-43" d="M69.4,61.5c.4,0,.5.3.4.7-.3.3-.6.6-.8,1-.5.1-.7,0-.6-.5.3-.4.6-.8,1-1.2Z" />
  <path class="cls-46"
    d="M57.4,61.1c-.2.3-.3.5-.5.8-.6.3-1.1.7-1.5,1.2-.3,0-.5,0-.5-.4-.1.2-.3.3-.4.1.5-.8,1.2-1.4,2-2,.2-.1.3-.3.5-.4.3.2.4.4,0,.6.1,0,.2,0,.4,0Z" />
  <path class="cls-70"
    d="M61.3,60.4c0-.1.2-.1.4-.1,0,.2,0,.4,0,.6-.8.8-1.6,1.5-2.5,2.1,0-.2,0-.5.2-.6,0,0,0-.1-.1-.2,0-.2.1-.4.4-.5-.2.2-.1.4.1.5.7-.4,1.3-.9,1.7-1.5.1.2.2.1.2,0,0-.1-.1-.2-.2-.2Z" />
  <path class="cls-89"
    d="M102.4,58.2h.4c-.2.5-.4,1-.6,1.5-.3.5-.6,1-1.1,1.5h.1c-.3.3-.4.6-.5.9-.3.4-.8.7-1.3.8-.1-.1-.2-.3,0-.5.8-1.5,1.8-2.9,3-4.2Z" />
  <path class="cls-97"
    d="M61.3,60.4c.1,0,.2,0,.2.2,0,.2,0,.2-.2,0-.4.6-1,1.2-1.7,1.5-.3,0-.3-.3-.1-.5.5-.6,1.1-1,1.8-1.3Z" />
  <path class="cls-62" d="M95.1,60.3c0,0,0,0,.1,0-.3.3-.5.7-.6,1.1-.1-.5,0-.9.5-1.2Z" />
  <path class="cls-16"
    d="M57.4,61.1c-.1,0-.2.1-.4,0,.3-.2.3-.5,0-.6-.2,0-.4.2-.5.4,0-.4.3-.6.7-.6.1.2.2.3.4.1.4.3.3.6-.2.7Z" />
  <path class="cls-27"
    d="M67,58.7h.5c0,.2,0,.4,0,.6-.5.6-1,1.2-1.6,1.8-.2,0-.3,0-.5,0,0-.3,0-.5.1-.8.6-.5,1.1-1.1,1.5-1.7Z" />
  <path class="cls-74"
    d="M103.5,58.8c-.5.8-1,1.5-1.5,2.3-.4.3-.8.7-1.2.9,0-.3.2-.6.5-.8h-.1c.4-.6.8-1.1,1.1-1.6.5-.2,1-.6,1.2-1.2,0,0,0,.1,0,.2Z" />
  <path class="cls-35"
    d="M102.4,58.2c0,0,.1-.1.2-.1.2.2.5.2.8.3.2.2.2.3,0,.4,0,0,0-.2,0-.2-.3.5-.7.9-1.2,1.2.2-.5.4-1,.6-1.5h-.4Z" />
  <path class="cls-7"
    d="M65.1,57c.2,0,.4.1.5.4-.1.3-.2.6-.4.9-.6.6-1.3,1.3-1.9,1.8-.2,0-.5,0-.7,0,0-.3,0-.5.2-.7.9-.8,1.7-1.6,2.4-2.5Z" />
  <path class="cls-93"
    d="M61.9,56.9c.1.2.2.2.4,0,.1.1.2.3,0,.5-.2.3-.5.6-.8.9-.7.5-1.3,1.1-2,1.6-.2,0-.5-.1-.7-.1.6-.7,1.3-1.3,2.1-1.9.3-.3.6-.6.9-1Z" />
  <path class="cls-21"
    d="M94.7,61.5c.1-.4.3-.8.6-1.1,0,0,0,0-.1,0,.6-1,1.3-2,2.1-2.9.2-.3.5-.5.8-.7.3,0,.3.2.2.5-1,1.5-2.1,2.9-3.2,4.3-.1,0-.2,0-.4,0Z" />
  <path class="cls-38"
    d="M60.9,54.9c.1,0,.3,0,.4.2,0,.2,0,.4-.3.6-.9,1-1.8,2-2.8,2.8-.3-.2-.4-.4-.1-.7.9-1,1.9-2,2.9-2.9Z" />
  <path class="cls-51"
    d="M97.8,53.1c.1,0,.2.2.2.4-1.2,2-2.7,3.8-4.3,5.5-.2,0-.3-.3-.2-.5,1-1.5,2.1-3,3.2-4.5.3-.4.6-.7,1.1-.9Z" />
  <path class="cls-48" d="M63.5,54.9h.4c0,.5-.2.9-.6,1.1-.2-.4,0-.8.3-1.1Z" />
  <path class="cls-3"
    d="M107.2,52.6c.2,0,.3.2.2.4-.8,1.4-1.8,2.6-2.9,3.8-.3-.2-.3-.5-.2-.8.4-.8,1-1.6,1.6-2.3.6-.1,1.1-.5,1.4-1Z" />
  <path class="cls-19"
    d="M93.7,52.7c0-.1-.2-.1-.4,0-.5.5-1,1-1.5,1.6-.1,0-.1-.1,0-.2.5-.5.9-1,1.4-1.5.2-.1.4-.2.6-.2,0,.2,0,.3-.1.4Z" />
  <path class="cls-46"
    d="M93.7,52.7c-.5.8-1,1.6-1.6,2.3-.2,0-.4,0-.6,0,0-.3.2-.5.4-.7.5-.5,1-1.1,1.5-1.6.1,0,.3,0,.4,0Z" />
  <path class="cls-86"
    d="M102.3,47.6h.4c0,.2,0,.4,0,.6-.8,1.1-1.5,2.3-2.2,3.5-.4.4-.6.3-.6-.2,0-.4.2-.8.4-1.2.7-1,1.4-1.8,2.2-2.7Z" />
  <path class="cls-81"
    d="M112.4,45.6c.5-.1.8-.4.9-.9.6-.2.7,0,.4.6-1,1.4-2.1,2.8-3.2,4.2-.2.3-.4.3-.6,0,.1-.6.3-1.1.6-1.6.6-.8,1.2-1.5,1.8-2.3Z" />
  <path class="cls-34"
    d="M112.9,42.8h.5c0,.4-.3.8-.5,1.2-2,2.6-4.1,5.1-6.3,7.6-.2,0-.3,0-.5,0,.1-.3.2-.6.4-.8,1.8-2.3,3.6-4.7,5.4-7,.3-.3.7-.7,1-.9Z" />
  <path class="cls-33" d="M113.3,44.7c-.1.5-.4.8-.9.9.3-.3.5-.6.8-.9,0-.1.1-.1.2,0Z" />
  <path class="cls-15" d="M104.2,44.5h.5c0,.6-.2,1-.7,1.3-.3.1-.7.3-1,.4-.2-.2-.2-.5,0-.7.4-.3.8-.7,1.2-1.1Z" />
  <path class="cls-80"
    d="M113.4,38h.4c0,.2,0,.5-.2.7-3.3,3.9-6.5,7.9-9.6,12-.6.4-.8.3-.5-.4.4-.6.8-1.3,1.2-1.9,2.9-3.5,5.8-7,8.7-10.4Z" />
  <path class="cls-66" d="M117.1,38h1.1c-.2.5-.4,1-.8,1.4l-1.2,1.2c-.4.2-.8.3-1.2.2.7-1,1.4-1.9,2.1-2.9Z" />
  <path class="cls-49"
    d="M105.9,38c.2,0,.3,0,.5.1,0,.2-.2.4-.3.6-1.3,1.4-2.7,2.8-4.1,4.1-.9,1-1.7,2.1-2.6,3.1-.4,0-.6-.1-.4-.5,2.1-2.7,4.4-5.2,7-7.4Z" />
  <path class="cls-59"
    d="M120.4,35.6c-.4.9-1.1,1.2-2.1,1.1,0-.1,0-.2,0-.4.4-.4.7-.8,1-1.3.1,0,.2,0,.4-.1.1.2.3.2.5.2,0-.2,0-.3.1-.5.1.3.2.6.1.9Z" />
  <path class="cls-56"
    d="M120.4,35.6c0-.3,0-.6-.1-.9-.1.1-.1.3-.1.5-.2,0-.3,0-.5-.2-.1,0-.2.1-.4.1.3-.5.8-.7,1.3-.7.1,0,.2.2.2.4,0,.4-.3.7-.5.9Z" />
  <path class="cls-25"
    d="M115.8,30.1h.4c0,.2,0,.3-.1.5-1.9,1.5-3.8,3-5.6,4.6-.3.2-.7.4-1.1.6-.3,0-.4-.1-.3-.4,2.1-2,4.3-3.7,6.7-5.3Z" />
  <path class="cls-84" d="M123,31.9h.6c-.3.8-1,1.3-1.9,1.5-.3,0-.4-.2-.2-.5.3-.3.6-.5,1-.7h.1c.1,0,.3-.2.4-.4Z" />
  <path class="cls-53"
    d="M126.3,28.5c-.6.4-1.1,1-1.4,1.6-.4.7-.9.9-1.6.8,0-.3.2-.5.3-.8.5-.7,1.1-1.4,1.6-2.1.4-.4.8-.5,1.3-.5.2.4.1.7-.2,1Z" />
  <path class="cls-100" d="M126.3,28.5c.1.2,0,.3-.2.4,0,.3-.2.5-.5.5-.1.3-.4.6-.7.8.3-.7.8-1.2,1.4-1.6Z" />
  <path class="cls-50"
    d="M129.4,24.8c.3,0,.5,0,.6.3-.1.3-.3.5-.6.7-.5.4-1.1.7-1.6,1-.1-.2-.2-.2-.4,0-.1,0-.3-.2-.4-.3.7-.7,1.5-1.3,2.3-1.7Z" />
  <path class="cls-92"
    d="M89.9,79.9c0,.2,0,.4.2.5-.2.1-.4.3-.6.5-.1-.1-.2-.3-.2-.4-.1,0-.2-.1-.3-.2,0,0-.2.1-.3.1.3-.4.7-.5,1.2-.5Z" />
  <path class="cls-101"
    d="M64.4,76.8c.2,0,.5,0,.7.1,1.6,2,3.2,4,4.8,5.9-.1,0-.3.1-.4.2-.5-.3-1-.7-1.4-1.2-1.2-1.4-2.4-2.9-3.5-4.3-.1-.2-.2-.5-.2-.7Z" />
  <path class="cls-96"
    d="M90.8,79.7h.1c0,.1,0,.3.1.4,0-.1,0-.2.1-.4,0,0,.2.2.2.2.1.2,0,.3,0,.5-.7.8-1.4,1.5-2.3,2.1-.2,0-.4,0-.6,0,0-.3,0-.5.2-.7,0-.1,0-.1-.2,0-1.2,1.7-2.3,3.5-3.3,5.3-.2.2-.4.3-.6.2,0-.3,0-.5.2-.8,1-1.8,2-3.5,3-5.3.2-.4.5-.7.9-.9.1,0,.2,0,.3-.1,0,0,.2.1.3.2,0,.2,0,.3.2.4.2-.2.4-.3.6-.5.3-.1.5-.3.7-.6Z" />
  <path class="cls-54"
    d="M73.1,82c.1,0,.2,0,.2.2-.1.2-.2.5-.3.7-.7.6-1.3,1.1-1.9,1.6.5.7,1,1.3,1.4,1.9-.2.1-.5.2-.7,0-.4-.5-.9-1-1.4-1.5-.3.2-.7.3-1.1.1.3-.3.6-.7.8-1.2.2,0,.5,0,.7-.2.7-.6,1.5-1.2,2.2-1.8Z" />
  <path class="cls-76"
    d="M78.4,83.7c0,0,.1,0,.1.2-.4.9-1,1.7-1.8,2.3-.2,0-.3,0-.5,0,0-.3.1-.5.3-.7.6-.7,1.2-1.3,1.8-1.9Z" />
  <path class="cls-28"
    d="M89.5,83.1c.1,0,.3,0,.4.1-.7,1.4-1.6,2.7-2.7,3.8-.3.2-.6.2-.8,0,.4-1,.9-1.9,1.6-2.7.3-.3.7-.5,1.1-.6.1-.2.3-.4.5-.5Z" />
  <path class="cls-65" d="M73.6,88.1c.4,0,.7.3.8.7-.1,0-.2,0-.3.1-.2-.3-.4-.5-.5-.8Z" />
  <path class="cls-9"
    d="M73.3,87.8c.2,0,.2,0,.2.2.1.3.3.6.5.8,0,0,.2-.1.3-.1-.1.2-.1.3,0,.5-.6.2-1.1,0-1.3-.7.1-.2.2-.4.2-.7Z" />
  <path class="cls-83" d="M73.3,87.8c0,.3,0,.5-.2.7-.1-.2-.2-.4-.1-.7h.4Z" />
  <path class="cls-42"
    d="M87.5,87.9c.1,0,.2,0,.2.1,0,.2-.2.4-.5.4-.4,1.4-1.3,2.3-2.7,2.8,0-.6.1-1.1.5-1.6.8-.6,1.6-1.1,2.5-1.6Z" />
  <path class="cls-26"
    d="M83.9,89.5c.1,0,.2,0,.2.2-.1.2-.2.4-.4.6h.1c-.3.2-.3.3-.2.5-.2.4-.5.7-.8,1,0,0,0-.1-.1-.2.3-.7.7-1.4,1.2-2.1Z" />
  <path class="cls-85"
    d="M76.7,93.1c-.2,0-.3-.2-.5-.5.2-.1.2-.2,0-.4.1-.3.2-.3.3,0,.1-.2.2-.5,0-.7.6-1.5,1.4-3,2.3-4.5.2-.4.5-.4.8,0-.9,1.8-1.8,3.6-2.7,5.3,0,.3,0,.6-.2.8Z" />
  <path class="cls-82"
    d="M78.8,94.4c-.4.4-.4.8,0,1.2,0,0-.1.1-.2.2-.3-.2-.5-.5-.8-.7,0-.3.2-.6.4-.9.9-2.1,1.9-4.2,2.9-6.2.3-.5.6-.6.9-.1-1.1,2.2-2.1,4.3-3,6.6Z" />
  <path class="cls-2"
    d="M76.6,91.5c.1.2,0,.5,0,.7,0-.3-.2-.3-.3,0,.2.1.2.2,0,.4.1.3.3.5.5.5-.2.1-.3,0-.4-.1-.4-.5-.7-1-1-1.5,0-.7.3-.7.8-.1.1.5.3.6.5.1Z" />
  <path class="cls-30"
    d="M85.8,91.7c.2,0,.3.2.2.5-.4.5-.8,1-1.1,1.6-.5.5-1.1.8-1.8.8-.1-.3,0-.6.2-.9.5-.6,1.2-1.1,1.9-1.5.2-.2.4-.4.6-.5Z" />
  <path class="cls-5"
    d="M81.4,93c0,0,.2,0,.2,0-.1,0-.1.2,0,.3-.3.6-.5,1.2-.7,1.9-.4,0-.7-.2-.8-.6,0-.5.3-1,.8-1.3h.1c0-.2.1-.3.2,0,0-.1.1-.2.2-.4Z" />
  <path class="cls-67" d="M78.1,94.2c-.1.3-.3.6-.4.9,0-.4,0-.8-.2-1.2-.4,0-.5,0-.4-.4.2,0,.5,0,.7.1,0,.2,0,.4.2.5Z" />
  <path class="cls-45"
    d="M78.8,94.4c0,.4.1.7.2,1.1-.1.5,0,.8.5.9,0-.3.2-.3.3,0-.2.3-.3.3-.5,0,0,0,0,.1,0,.2-.2-.3-.5-.5-.7-.8,0,0,.2,0,.2-.2-.4-.4-.4-.8,0-1.2Z" />
  <path class="cls-12" d="M79.2,95.4c.2.2.5.3.7.4-.2,0-.4.1-.4.4-.2-.2-.3-.4-.3-.7Z" />
  <path class="cls-14" d="M79.9,95.8c.3.3.6.7.8,1.1-.2-.1-.4-.1-.5,0-.1-.3-.2-.7-.3-1.1Z" />
  <path class="cls-31"
    d="M79.1,95.4h.1c0,.3.1.5.3.7,0-.2.2-.3.4-.4,0,.4.2.7.3,1.1.2-.1.3-.1.5,0,0,.2,0,.3-.2.4,0,.2.1.3.2.5,0-.1,0-.2.1-.4,0,.2,0,.4.2.6,0,.1-.1.2-.2.3-.7-.4-1.2-1-1.4-1.8,0,0,0-.2,0-.2.2.4.4.4.5,0-.1-.3-.2-.3-.3,0-.5-.2-.7-.5-.5-.9Z" />
  <path class="cls-8"
    d="M83.4,95.9c.2,0,.3,0,.5.2-.3.5-.7,1-1.3,1.5-.2.1-.5.2-.7.2,0-.3,0-.6.2-.9h-.1c.2-.3.3-.5.5-.6.3,0,.6-.2.9-.4Z" />
  <g>
    <!-- left -->
    <path class="cls-73 left" d="M50.1,2.4c3.8,2,6.4,5.6,7.9,10.6l-4.4,5.6c-1.4-5-4.1-8.6-7.9-10.6l4.4-5.6Z" />
    <path class="cls-73 left" d="M21.8,26.6c2.7-.6,7.5,1.2,14.3,5.4l-2.1,5.5c-6.8-4.2-11.5-6-14.3-5.4l2.1-5.5Z" />
    <path class="cls-73 left" d="M13.3,55.5c4.1-1.3,11.7-.7,22.7,1.9l-2.3,5.9c-11.1-2.5-18.6-3.2-22.7-1.9l2.3-5.9Z" />
    <path class="cls-73 left" d="M16.6,92.7c5-4.1,13.1-7.9,24.4-11.6l2.5,5.3c-11.3,3.6-19.4,7.5-24.4,11.6l-2.5-5.3Z" />
    <path class="cls-73 left" d="M45.7,110.2c1.4-5.4,3.7-8.8,7.1-10.1l3.7,7.6c-3.4,1.4-5.7,4.7-7.1,10.1l-3.7-7.6Z" />
    <!-- right -->
    <path class="cls-73 right" d="M120.3,10.1c.8-3.3,3-5.9,6.5-7.7l5.2,2.8c-3.6,1.8-5.8,4.4-6.5,7.7l-5.2-2.8Z" />
    <path class="cls-73 right" d="M143.2,29.7c4.9-2.9,10.9-4.6,18.1-4.9l1.5,5.7c-7.2.3-13.2,2-18.1,4.9l-1.5-5.7Z" />
    <path class="cls-73 right" d="M138.7,54.5c8.7-1.6,17.1-1.7,25.2,0l-1.3,6c-8.1-1.6-16.4-1.6-25.2,0l1.3-6Z" />
    <path class="cls-73 right" d="M133.7,80.1c6.3,1.2,12,3.9,17,7.9l-2.5,5.3c-5-4.1-10.7-6.7-17-7.9l2.5-5.3Z" />
    <path class="cls-73 right" d="M113.2,100.1c4.4,2.2,7.7,5.5,10,9.9l-4.1,4.2c-2.2-4.4-5.5-7.7-10-9.9l4.1-4.2Z" />
  </g>
</svg>