<?xml version="1.0" encoding="UTF-8"?>
<!DOCTYPE svg PUBLIC "-//W3C//DTD SVG 1.1//EN" "http://www.w3.org/Graphics/SVG/1.1/DTD/svg11.dtd">
<svg xmlns="http://www.w3.org/2000/svg" version="1.1" width="1080px" height="1920px" style="shape-rendering:geometricPrecision; text-rendering:geometricPrecision; image-rendering:optimizeQuality; fill-rule:evenodd; clip-rule:evenodd" xmlns:xlink="http://www.w3.org/1999/xlink">
<g><path style="opacity:0.688" fill="#326fdc" d="M -0.5,-0.5 C 94.1667,-0.5 188.833,-0.5 283.5,-0.5C 291.979,9.77771 299.479,20.7777 306,32.5C 317.297,57.095 329.63,81.095 343,104.5C 370.86,144.993 409.36,161.326 458.5,153.5C 491.644,153.325 519.477,165.325 542,189.5C 563.52,214.214 576.686,242.88 581.5,275.5C 581.5,276.833 581.5,278.167 581.5,279.5C 565.669,308.964 552.335,339.631 541.5,371.5C 513.084,362.594 484.084,360.094 454.5,364C 431.766,367.278 412.933,377.445 398,394.5C 391.384,404.176 387.218,414.843 385.5,426.5C 379.644,428.092 373.977,430.258 368.5,433C 358.06,438.962 348.06,445.462 338.5,452.5C 327.03,429.561 315.53,406.561 304,383.5C 287.706,357.216 264.873,339.049 235.5,329C 200.642,316.561 165.642,315.895 130.5,327C 98.4198,340.976 84.9198,365.476 90,400.5C 92.3406,418.878 95.0073,437.211 98,455.5C 108.39,515.228 85.8905,557.062 30.5,581C 20.4111,585.086 10.0778,588.253 -0.5,590.5C -0.5,393.5 -0.5,196.5 -0.5,-0.5 Z"/></g>
<g><path style="opacity:0.9" fill="#365998" d="M 449.5,-0.5 C 659.167,-0.5 868.833,-0.5 1078.5,-0.5C 1078.5,0.166667 1078.83,0.5 1079.5,0.5C 1079.5,188.5 1079.5,376.5 1079.5,564.5C 1037.37,554.523 1002.2,533.19 974,500.5C 959.911,483.073 945.077,466.24 929.5,450C 922.532,443.178 914.532,437.845 905.5,434C 888.811,428.589 873.811,431.589 860.5,443C 854.236,448.984 848.07,455.151 842,461.5C 826.97,482.2 810.137,501.366 791.5,519C 774.239,532.874 754.572,541.541 732.5,545C 715.556,547.587 698.556,548.087 681.5,546.5C 673.933,524.969 666.433,503.302 659,481.5C 641.422,433.904 609.589,399.904 563.5,379.5C 576.382,354.737 583.049,328.404 583.5,300.5C 583.698,293.379 583.032,286.379 581.5,279.5C 581.5,278.167 581.5,276.833 581.5,275.5C 593.115,253.921 602.281,231.255 609,207.5C 618.595,166.792 602.762,143.959 561.5,139C 539.095,138.184 516.762,136.517 494.5,134C 465.847,129.012 447.68,112.512 440,84.5C 433.91,55.1413 437.077,26.808 449.5,-0.5 Z"/></g>
<g><path style="opacity:0.968" fill="#3469c8" d="M 581.5,279.5 C 583.032,286.379 583.698,293.379 583.5,300.5C 583.049,328.404 576.382,354.737 563.5,379.5C 563.167,379.5 562.833,379.5 562.5,379.5C 555.575,376.417 548.575,373.751 541.5,371.5C 552.335,339.631 565.669,308.964 581.5,279.5 Z"/></g>
<g><path style="opacity:1" fill="#2d5fb7" d="M 541.5,371.5 C 548.575,373.751 555.575,376.417 562.5,379.5C 533.607,429.888 491.607,464.388 436.5,483C 421.211,487.9 405.545,489.733 389.5,488.5C 389.167,488.5 388.833,488.5 388.5,488.5C 387.826,479.11 386.66,469.776 385,460.5C 384.283,449.145 384.449,437.811 385.5,426.5C 387.218,414.843 391.384,404.176 398,394.5C 412.933,377.445 431.766,367.278 454.5,364C 484.084,360.094 513.084,362.594 541.5,371.5 Z"/></g>
<g><path style="opacity:0.999" fill="#203a67" d="M 562.5,379.5 C 562.833,379.5 563.167,379.5 563.5,379.5C 609.589,399.904 641.422,433.904 659,481.5C 666.433,503.302 673.933,524.969 681.5,546.5C 684.167,553.5 686.833,560.5 689.5,567.5C 714.271,630.069 760.271,664.236 827.5,670C 843.5,670.667 859.5,670.667 875.5,670C 906.105,667.004 936.772,666.004 967.5,667C 1021.69,671.9 1059.02,699.4 1079.5,749.5C 1079.5,823.5 1079.5,897.5 1079.5,971.5C 1065.62,1036.82 1045.28,1100.15 1018.5,1161.5C 1009.06,1161.31 999.724,1160.14 990.5,1158C 961.764,1150.49 932.764,1144.15 903.5,1139C 855.608,1130.4 816.442,1144.9 786,1182.5C 756.288,1222.64 741.121,1267.8 740.5,1318C 740.791,1352.21 749.624,1384.04 767,1413.5C 773.115,1424.09 779.948,1434.09 787.5,1443.5C 787.5,1443.83 787.5,1444.17 787.5,1444.5C 744.014,1471.11 697.681,1491.11 648.5,1504.5C 548.774,1528.47 448.774,1529.64 348.5,1508C 300.379,1497.43 255.712,1478.93 214.5,1452.5C 214.167,1451.83 213.833,1451.17 213.5,1450.5C 215.512,1422.25 219.345,1394.25 225,1366.5C 241.33,1298.18 257.496,1229.85 273.5,1161.5C 274.167,1161.5 274.5,1161.17 274.5,1160.5C 289.224,1157.32 303.891,1153.82 318.5,1150C 334.029,1146.49 347.195,1138.99 358,1127.5C 360.649,1123.05 362.816,1118.38 364.5,1113.5C 367.021,1097.89 364.854,1082.89 358,1068.5C 340.038,1034.2 318.872,1002.2 294.5,972.5C 294.443,971.391 294.11,970.391 293.5,969.5C 287.788,917.05 263.788,875.383 221.5,844.5C 221.167,843.833 220.833,843.167 220.5,842.5C 211.824,803.359 224.824,773.859 259.5,754C 278.814,744.509 298.481,735.842 318.5,728C 376.105,704.494 404.772,661.494 404.5,599C 403.927,586.816 403.094,574.649 402,562.5C 397.635,537.846 393.468,513.179 389.5,488.5C 405.545,489.733 421.211,487.9 436.5,483C 491.607,464.388 533.607,429.888 562.5,379.5 Z"/></g>
<g><path style="opacity:0.839" fill="#367bdb" d="M 385.5,426.5 C 384.449,437.811 384.283,449.145 385,460.5C 386.66,469.776 387.826,479.11 388.5,488.5C 372.71,486.356 359.544,479.356 349,467.5C 345.637,462.65 342.137,457.983 338.5,453.5C 338.5,453.167 338.5,452.833 338.5,452.5C 348.06,445.462 358.06,438.962 368.5,433C 373.977,430.258 379.644,428.092 385.5,426.5 Z"/></g>
<g><path style="opacity:0.477" fill="#45aed5" d="M 338.5,453.5 C 342.137,457.983 345.637,462.65 349,467.5C 359.544,479.356 372.71,486.356 388.5,488.5C 388.833,488.5 389.167,488.5 389.5,488.5C 393.468,513.179 397.635,537.846 402,562.5C 403.094,574.649 403.927,586.816 404.5,599C 404.772,661.494 376.105,704.494 318.5,728C 298.481,735.842 278.814,744.509 259.5,754C 224.824,773.859 211.824,803.359 220.5,842.5C 161.202,800.093 95.5354,784.927 23.5,797C 15.3142,799.007 7.31415,801.507 -0.5,804.5C -0.5,757.833 -0.5,711.167 -0.5,664.5C 10.8496,662.092 22.3496,661.092 34,661.5C 112.609,674.194 177.942,650.86 230,591.5C 239.048,580.787 247.714,569.787 256,558.5C 276.715,526.409 299.382,495.742 324,466.5C 328.406,461.589 333.24,457.255 338.5,453.5 Z"/></g>
<g><path style="opacity:0.474" fill="#44aed5" d="M 689.5,567.5 C 717.662,585.843 747.995,599.677 780.5,609C 820.062,619.152 859.062,617.485 897.5,604C 919.928,594.412 942.595,585.412 965.5,577C 1005.2,565.957 1043.2,570.123 1079.5,589.5C 1079.5,642.833 1079.5,696.167 1079.5,749.5C 1059.02,699.4 1021.69,671.9 967.5,667C 936.772,666.004 906.105,667.004 875.5,670C 859.5,670.667 843.5,670.667 827.5,670C 760.271,664.236 714.271,630.069 689.5,567.5 Z"/></g>
<g><path style="opacity:0.714" fill="#79b4e7" d="M 220.5,842.5 C 220.833,843.167 221.167,843.833 221.5,844.5C 226.906,864.65 235.073,883.65 246,901.5C 260.624,925.107 276.457,947.774 293.5,969.5C 294.11,970.391 294.443,971.391 294.5,972.5C 295.83,994.828 295.663,1017.16 294,1039.5C 291.992,1059.57 289.492,1079.57 286.5,1099.5C 268.268,1101.63 251.268,1107.47 235.5,1117C 212.584,1131.91 192.084,1149.74 174,1170.5C 165.333,1181.17 156.667,1191.83 148,1202.5C 123.945,1235.56 100.278,1268.89 77,1302.5C 61.6618,1323.18 44.8285,1342.68 26.5,1361C 18.1884,1368.81 9.18843,1375.65 -0.5,1381.5C -0.5,1189.17 -0.5,996.833 -0.5,804.5C 7.31415,801.507 15.3142,799.007 23.5,797C 95.5354,784.927 161.202,800.093 220.5,842.5 Z"/></g>
<g><path style="opacity:1" fill="#5672a5" d="M 221.5,844.5 C 263.788,875.383 287.788,917.05 293.5,969.5C 276.457,947.774 260.624,925.107 246,901.5C 235.073,883.65 226.906,864.65 221.5,844.5 Z"/></g>
<g><path style="opacity:0.475" fill="#45aed5" d="M 294.5,972.5 C 318.872,1002.2 340.038,1034.2 358,1068.5C 364.854,1082.89 367.021,1097.89 364.5,1113.5C 340.014,1100.21 314.014,1095.54 286.5,1099.5C 289.492,1079.57 291.992,1059.57 294,1039.5C 295.663,1017.16 295.83,994.828 294.5,972.5 Z"/></g>
<g><path style="opacity:0.478" fill="#44aed5" d="M 1079.5,971.5 C 1079.5,1034.5 1079.5,1097.5 1079.5,1160.5C 1059.26,1163.61 1038.93,1164.28 1018.5,1162.5C 1018.5,1162.17 1018.5,1161.83 1018.5,1161.5C 1045.28,1100.15 1065.62,1036.82 1079.5,971.5 Z"/></g>
<g><path style="opacity:0.45" fill="#98b8f1" d="M 286.5,1099.5 C 283.012,1119.94 279.012,1140.27 274.5,1160.5C 274.5,1161.17 274.167,1161.5 273.5,1161.5C 240.941,1169.02 213.774,1185.36 192,1210.5C 154.1,1255.54 139.767,1307.21 149,1365.5C 160.349,1401.53 181.849,1429.86 213.5,1450.5C 213.833,1451.17 214.167,1451.83 214.5,1452.5C 212.845,1520.69 245.512,1561.19 312.5,1574C 322.434,1575.83 332.434,1577.16 342.5,1578C 371.183,1579.78 399.85,1581.78 428.5,1584C 507.882,1589.07 557.715,1629.9 578,1706.5C 593.905,1783.09 580.739,1854.09 538.5,1919.5C 358.833,1919.5 179.167,1919.5 -0.5,1919.5C -0.5,1740.17 -0.5,1560.83 -0.5,1381.5C 9.18843,1375.65 18.1884,1368.81 26.5,1361C 44.8285,1342.68 61.6618,1323.18 77,1302.5C 100.278,1268.89 123.945,1235.56 148,1202.5C 156.667,1191.83 165.333,1181.17 174,1170.5C 192.084,1149.74 212.584,1131.91 235.5,1117C 251.268,1107.47 268.268,1101.63 286.5,1099.5 Z"/></g>
<g><path style="opacity:1" fill="#1978c9" d="M 1018.5,1161.5 C 1018.5,1161.83 1018.5,1162.17 1018.5,1162.5C 986.938,1231.99 946.105,1295.33 896,1352.5C 863.764,1387.94 827.597,1418.27 787.5,1443.5C 779.948,1434.09 773.115,1424.09 767,1413.5C 749.624,1384.04 740.791,1352.21 740.5,1318C 741.121,1267.8 756.288,1222.64 786,1182.5C 816.442,1144.9 855.608,1130.4 903.5,1139C 932.764,1144.15 961.764,1150.49 990.5,1158C 999.724,1160.14 1009.06,1161.31 1018.5,1161.5 Z"/></g>
<g><path style="opacity:0.855" fill="#1e95eb" d="M 1079.5,1160.5 C 1079.5,1255.83 1079.5,1351.17 1079.5,1446.5C 1048.87,1481.29 1015.21,1512.79 978.5,1541C 945.46,1565.52 909.126,1583.69 869.5,1595.5C 869.899,1572.19 864.065,1550.52 852,1530.5C 847.333,1523.17 842.667,1515.83 838,1508.5C 821.303,1486.98 804.47,1465.65 787.5,1444.5C 787.5,1444.17 787.5,1443.83 787.5,1443.5C 827.597,1418.27 863.764,1387.94 896,1352.5C 946.105,1295.33 986.938,1231.99 1018.5,1162.5C 1038.93,1164.28 1059.26,1163.61 1079.5,1160.5 Z"/></g>
<g><path style="opacity:1" fill="#5773a6" d="M 273.5,1161.5 C 257.496,1229.85 241.33,1298.18 225,1366.5C 219.345,1394.25 215.512,1422.25 213.5,1450.5C 181.849,1429.86 160.349,1401.53 149,1365.5C 139.767,1307.21 154.1,1255.54 192,1210.5C 213.774,1185.36 240.941,1169.02 273.5,1161.5 Z"/></g>
<g><path style="opacity:0.475" fill="#44aed5" d="M 787.5,1444.5 C 804.47,1465.65 821.303,1486.98 838,1508.5C 842.667,1515.83 847.333,1523.17 852,1530.5C 864.065,1550.52 869.899,1572.19 869.5,1595.5C 869.5,1595.83 869.5,1596.17 869.5,1596.5C 819.438,1610.66 772.105,1604.49 727.5,1578C 697.175,1557.84 670.842,1533.34 648.5,1504.5C 697.681,1491.11 744.014,1471.11 787.5,1444.5 Z"/></g>
<g><path style="opacity:0.72" fill="#1791ef" d="M 1079.5,1446.5 C 1079.5,1604.17 1079.5,1761.83 1079.5,1919.5C 1007.5,1919.5 935.5,1919.5 863.5,1919.5C 838.444,1901.28 817.277,1879.28 800,1853.5C 781.473,1825.06 774.806,1794.06 780,1760.5C 783.852,1743.13 791.185,1727.47 802,1713.5C 814.291,1698.21 826.958,1683.21 840,1668.5C 850.838,1654.97 859.171,1639.97 865,1623.5C 867.562,1614.67 869.062,1605.67 869.5,1596.5C 869.5,1596.17 869.5,1595.83 869.5,1595.5C 909.126,1583.69 945.46,1565.52 978.5,1541C 1015.21,1512.79 1048.87,1481.29 1079.5,1446.5 Z"/></g>
</svg>
