<?xml version="1.0" encoding="UTF-8"?>
<!DOCTYPE svg PUBLIC "-//W3C//DTD SVG 1.1//EN" "http://www.w3.org/Graphics/SVG/1.1/DTD/svg11.dtd">
<svg xmlns="http://www.w3.org/2000/svg" version="1.1" width="400px" height="550px" style="shape-rendering:geometricPrecision; text-rendering:geometricPrecision; image-rendering:optimizeQuality; fill-rule:evenodd; clip-rule:evenodd" xmlns:xlink="http://www.w3.org/1999/xlink">
<g><path style="opacity:0.3" fill="#131b40" d="M 399.5,213.5 C 399.5,325.5 399.5,437.5 399.5,549.5C 266.167,549.5 132.833,549.5 -0.5,549.5C -0.5,536.5 -0.5,523.5 -0.5,510.5C 16.5857,476.276 43.919,454.776 81.5,446C 107.574,440.386 132.907,442.719 157.5,453C 167.711,458.272 178.044,463.272 188.5,468C 196.744,471.019 205.244,472.853 214,473.5C 232.064,472.215 248.23,466.048 262.5,455C 289.018,434.167 305.518,407 312,373.5C 316.949,346.422 322.282,319.422 328,292.5C 336.002,258.194 355.502,233.027 386.5,217C 390.722,215.362 395.055,214.195 399.5,213.5 Z"/></g>
</svg>
