<svg id="visual" viewBox="0 0 900 600" width="900" height="600" xmlns="http://www.w3.org/2000/svg" xmlns:xlink="http://www.w3.org/1999/xlink" version="1.1"><path d="M0 169L13.7 170C27.3 171 54.7 173 82 165C109.3 157 136.7 139 163.8 140C191 141 218 161 245.2 167C272.3 173 299.7 165 327 150C354.3 135 381.7 113 409 122C436.3 131 463.7 171 491 189C518.3 207 545.7 203 573 184C600.3 165 627.7 131 654.8 129C682 127 709 157 736.2 175C763.3 193 790.7 199 818 188C845.3 177 872.7 149 886.3 135L900 121L900 0L886.3 0C872.7 0 845.3 0 818 0C790.7 0 763.3 0 736.2 0C709 0 682 0 654.8 0C627.7 0 600.3 0 573 0C545.7 0 518.3 0 491 0C463.7 0 436.3 0 409 0C381.7 0 354.3 0 327 0C299.7 0 272.3 0 245.2 0C218 0 191 0 163.8 0C136.7 0 109.3 0 82 0C54.7 0 27.3 0 13.7 0L0 0Z" fill="#ffffff"></path><path d="M0 217L13.7 220C27.3 223 54.7 229 82 222C109.3 215 136.7 195 163.8 198C191 201 218 227 245.2 234C272.3 241 299.7 229 327 215C354.3 201 381.7 185 409 191C436.3 197 463.7 225 491 236C518.3 247 545.7 241 573 225C600.3 209 627.7 183 654.8 186C682 189 709 221 736.2 235C763.3 249 790.7 245 818 232C845.3 219 872.7 197 886.3 186L900 175L900 119L886.3 133C872.7 147 845.3 175 818 186C790.7 197 763.3 191 736.2 173C709 155 682 125 654.8 127C627.7 129 600.3 163 573 182C545.7 201 518.3 205 491 187C463.7 169 436.3 129 409 120C381.7 111 354.3 133 327 148C299.7 163 272.3 171 245.2 165C218 159 191 139 163.8 138C136.7 137 109.3 155 82 163C54.7 171 27.3 169 13.7 168L0 167Z" fill="#afbedc"></path><path d="M0 283L13.7 281C27.3 279 54.7 275 82 263C109.3 251 136.7 231 163.8 237C191 243 218 275 245.2 285C272.3 295 299.7 283 327 266C354.3 249 381.7 227 409 233C436.3 239 463.7 273 491 285C518.3 297 545.7 287 573 274C600.3 261 627.7 245 654.8 252C682 259 709 289 736.2 297C763.3 305 790.7 291 818 277C845.3 263 872.7 249 886.3 242L900 235L900 173L886.3 184C872.7 195 845.3 217 818 230C790.7 243 763.3 247 736.2 233C709 219 682 187 654.8 184C627.7 181 600.3 207 573 223C545.7 239 518.3 245 491 234C463.7 223 436.3 195 409 189C381.7 183 354.3 199 327 213C299.7 227 272.3 239 245.2 232C218 225 191 199 163.8 196C136.7 193 109.3 213 82 220C54.7 227 27.3 221 13.7 218L0 215Z" fill="#5b82b9"></path><path d="M0 409L13.7 403C27.3 397 54.7 385 82 381C109.3 377 136.7 381 163.8 382C191 383 218 381 245.2 377C272.3 373 299.7 367 327 365C354.3 363 381.7 365 409 381C436.3 397 463.7 427 491 436C518.3 445 545.7 433 573 423C600.3 413 627.7 405 654.8 400C682 395 709 393 736.2 391C763.3 389 790.7 387 818 390C845.3 393 872.7 401 886.3 405L900 409L900 233L886.3 240C872.7 247 845.3 261 818 275C790.7 289 763.3 303 736.2 295C709 287 682 257 654.8 250C627.7 243 600.3 259 573 272C545.7 285 518.3 295 491 283C463.7 271 436.3 237 409 231C381.7 225 354.3 247 327 264C299.7 281 272.3 293 245.2 283C218 273 191 241 163.8 235C136.7 229 109.3 249 82 261C54.7 273 27.3 277 13.7 279L0 281Z" fill="#306cab"></path><path d="M0 499L13.7 490C27.3 481 54.7 463 82 454C109.3 445 136.7 445 163.8 447C191 449 218 453 245.2 451C272.3 449 299.7 441 327 439C354.3 437 381.7 441 409 453C436.3 465 463.7 485 491 490C518.3 495 545.7 485 573 478C600.3 471 627.7 467 654.8 467C682 467 709 471 736.2 473C763.3 475 790.7 475 818 472C845.3 469 872.7 463 886.3 460L900 457L900 407L886.3 403C872.7 399 845.3 391 818 388C790.7 385 763.3 387 736.2 389C709 391 682 393 654.8 398C627.7 403 600.3 411 573 421C545.7 431 518.3 443 491 434C463.7 425 436.3 395 409 379C381.7 363 354.3 361 327 363C299.7 365 272.3 371 245.2 375C218 379 191 381 163.8 380C136.7 379 109.3 375 82 379C54.7 383 27.3 395 13.7 401L0 407Z" fill="#5b82b9"></path><path d="M0 547L13.7 535C27.3 523 54.7 499 82 489C109.3 479 136.7 483 163.8 487C191 491 218 495 245.2 496C272.3 497 299.7 495 327 493C354.3 491 381.7 489 409 497C436.3 505 463.7 523 491 530C518.3 537 545.7 533 573 525C600.3 517 627.7 505 654.8 504C682 503 709 513 736.2 519C763.3 525 790.7 527 818 524C845.3 521 872.7 513 886.3 509L900 505L900 455L886.3 458C872.7 461 845.3 467 818 470C790.7 473 763.3 473 736.2 471C709 469 682 465 654.8 465C627.7 465 600.3 469 573 476C545.7 483 518.3 493 491 488C463.7 483 436.3 463 409 451C381.7 439 354.3 435 327 437C299.7 439 272.3 447 245.2 449C218 451 191 447 163.8 445C136.7 443 109.3 443 82 452C54.7 461 27.3 479 13.7 488L0 497Z" fill="#afbedc"></path><path d="M0 601L13.7 601C27.3 601 54.7 601 82 601C109.3 601 136.7 601 163.8 601C191 601 218 601 245.2 601C272.3 601 299.7 601 327 601C354.3 601 381.7 601 409 601C436.3 601 463.7 601 491 601C518.3 601 545.7 601 573 601C600.3 601 627.7 601 654.8 601C682 601 709 601 736.2 601C763.3 601 790.7 601 818 601C845.3 601 872.7 601 886.3 601L900 601L900 503L886.3 507C872.7 511 845.3 519 818 522C790.7 525 763.3 523 736.2 517C709 511 682 501 654.8 502C627.7 503 600.3 515 573 523C545.7 531 518.3 535 491 528C463.7 521 436.3 503 409 495C381.7 487 354.3 489 327 491C299.7 493 272.3 495 245.2 494C218 493 191 489 163.8 485C136.7 481 109.3 477 82 487C54.7 497 27.3 521 13.7 533L0 545Z" fill="#ffffff"></path></svg>