<?xml version="1.0" encoding="UTF-8"?>
<svg id="Réteg_1" data-name="Réteg 1" xmlns="http://www.w3.org/2000/svg" viewBox="0 0 170 120">
  <defs>
    <style>
      .cls-1 {
        fill: #353b40;
      }

      .cls-1, .cls-2, .cls-3, .cls-4, .cls-5, .cls-6, .cls-7, .cls-8, .cls-9, .cls-10, .cls-11, .cls-12, .cls-13, .cls-14, .cls-15, .cls-16, .cls-17, .cls-18, .cls-19, .cls-20, .cls-21, .cls-22, .cls-23, .cls-24, .cls-25, .cls-26, .cls-27, .cls-28, .cls-29, .cls-30, .cls-31, .cls-32, .cls-33, .cls-34, .cls-35, .cls-36, .cls-37, .cls-38, .cls-39, .cls-40, .cls-41, .cls-42, .cls-43, .cls-44, .cls-45, .cls-46, .cls-47, .cls-48, .cls-49, .cls-50, .cls-51, .cls-52, .cls-53, .cls-54, .cls-55, .cls-56, .cls-57, .cls-58, .cls-59, .cls-60, .cls-61, .cls-62, .cls-63, .cls-64, .cls-65, .cls-66, .cls-67, .cls-68, .cls-69, .cls-70, .cls-71, .cls-72, .cls-73, .cls-74, .cls-75, .cls-76, .cls-77, .cls-78, .cls-79, .cls-80, .cls-81, .cls-82, .cls-83, .cls-84, .cls-85, .cls-86, .cls-87, .cls-88, .cls-89, .cls-90, .cls-91, .cls-92, .cls-93, .cls-94, .cls-95, .cls-96, .cls-97, .cls-98, .cls-99, .cls-100, .cls-101 {
        fill-rule: evenodd;
      }

      .cls-1, .cls-2, .cls-3, .cls-4, .cls-5, .cls-6, .cls-7, .cls-8, .cls-9, .cls-10, .cls-11, .cls-12, .cls-13, .cls-14, .cls-15, .cls-16, .cls-17, .cls-18, .cls-19, .cls-20, .cls-21, .cls-22, .cls-23, .cls-24, .cls-25, .cls-26, .cls-27, .cls-28, .cls-29, .cls-30, .cls-31, .cls-32, .cls-33, .cls-34, .cls-35, .cls-36, .cls-37, .cls-38, .cls-39, .cls-40, .cls-41, .cls-42, .cls-43, .cls-44, .cls-45, .cls-46, .cls-47, .cls-48, .cls-49, .cls-50, .cls-51, .cls-52, .cls-53, .cls-54, .cls-55, .cls-56, .cls-57, .cls-58, .cls-59, .cls-60, .cls-61, .cls-62, .cls-63, .cls-64, .cls-65, .cls-66, .cls-67, .cls-68, .cls-69, .cls-70, .cls-71, .cls-72, .cls-73, .cls-74, .cls-75, .cls-76, .cls-77, .cls-78, .cls-79, .cls-80, .cls-81, .cls-82, .cls-83, .cls-84, .cls-85, .cls-86, .cls-87, .cls-88, .cls-89, .cls-90, .cls-91, .cls-93, .cls-94, .cls-95, .cls-96, .cls-97, .cls-98, .cls-99, .cls-100, .cls-101 {
        stroke-width: 0px;
      }

      .cls-2 {
        fill: #363c45;
      }

      .cls-3 {
        fill: #282c30;
        opacity: .97;
      }

      .cls-3, .cls-8, .cls-28, .cls-30, .cls-51, .cls-54, .cls-60, .cls-67, .cls-92 {
        isolation: isolate;
      }

      .cls-4 {
        fill: #5a5c5f;
      }

      .cls-5 {
        fill: #262c31;
      }

      .cls-6 {
        fill: #2b3237;
      }

      .cls-7 {
        fill: #33343a;
      }

      .cls-8 {
        fill: #252930;
        opacity: .99;
      }

      .cls-9 {
        fill: #263034;
      }

      .cls-10 {
        fill: #88888b;
      }

      .cls-11 {
        fill: #999ba2;
      }

      .cls-12 {
        fill: #86888a;
      }

      .cls-13 {
        fill: #b3b5b9;
      }

      .cls-14 {
        fill: #74787b;
      }

      .cls-15 {
        fill: #242c31;
      }

      .cls-16 {
        fill: #575a60;
      }

      .cls-17 {
        fill: #8d9092;
      }

      .cls-18 {
        fill: #2b2e34;
      }

      .cls-19 {
        fill: #878a8f;
      }

      .cls-20 {
        fill: #35383f;
      }

      .cls-21 {
        fill: #212934;
      }

      .cls-22 {
        fill: #26292f;
      }

      .cls-23 {
        fill: #808181;
      }

      .cls-24 {
        fill: #5a5f66;
      }

      .cls-25 {
        fill: #252729;
      }

      .cls-26 {
        fill: #34373f;
      }

      .cls-27 {
        fill: #24282d;
      }

      .cls-28 {
        fill: #202731;
        opacity: 1;
      }

      .cls-29 {
        fill: #575c60;
      }

      .cls-30 {
        fill: #26272c;
        opacity: .77;
      }

      .cls-31 {
        fill: #23272c;
      }

      .cls-32 {
        fill: #9a9899;
      }

      .cls-33 {
        fill: #747a81;
      }

      .cls-34 {
        fill: #2d343c;
      }

      .cls-35 {
        fill: #d6dadc;
      }

      .cls-36 {
        fill: #5f6263;
      }

      .cls-37 {
        fill: #9da0a2;
      }

      .cls-38 {
        fill: #272d34;
      }

      .cls-39 {
        fill: #cbcbcc;
      }

      .cls-40 {
        fill: rgba(28, 32, 37, 0);
      }

      .cls-41 {
        fill: #282d35;
      }

      .cls-42 {
        fill: #7f8187;
      }

      .cls-43 {
        fill: #2a2d35;
      }

      .cls-44 {
        fill: #2b3238;
      }

      .cls-45 {
        fill: #272c33;
      }

      .cls-46 {
        fill: #8b8d91;
      }

      .cls-47 {
        fill: #272a32;
      }

      .cls-48 {
        fill: #4b4c52;
      }

      .cls-49 {
        fill: #212e34;
      }

      .cls-50 {
        fill: #262a2e;
      }

      .cls-51 {
        fill: #2a2e31;
        opacity: .52;
      }

      .cls-52 {
        fill: #22282f;
      }

      .cls-53 {
        fill: #212529;
      }

      .cls-54 {
        fill: #20262f;
        opacity: .94;
      }

      .cls-55 {
        fill: #232930;
      }

      .cls-56 {
        fill: #262b2d;
      }

      .cls-57 {
        fill: #747678;
      }

      .cls-58 {
        fill: #2b3039;
      }

      .cls-59 {
        fill: #272b36;
      }

      .cls-60 {
        fill: #22252a;
        opacity: .59;
      }

      .cls-61 {
        fill: #9fa1a5;
      }

      .cls-62 {
        fill: #9e9e9e;
      }

      .cls-63 {
        fill: #7f8388;
      }

      .cls-64 {
        fill: #67686a;
      }

      .cls-65 {
        fill: #313334;
      }

      .cls-66 {
        fill: #6e7577;
      }

      .cls-67 {
        fill: #1e272d;
        opacity: .65;
      }

      .cls-68 {
        fill: #a5a7a9;
      }

      .cls-69 {
        fill: #292b35;
      }

      .cls-70 {
        fill: #2b2f35;
      }

      .cls-71 {
        fill: #484a4f;
      }

      .cls-72 {
        fill: #adaeb4;
      }

      .cls-73 {
        fill: #1d242a;
      }

      .cls-74 {
        fill: #6d7275;
      }

      .cls-75 {
        fill: #242931;
      }

      .cls-76 {
        fill: #2d343a;
      }

      .cls-77 {
        fill: #56585a;
      }

      .cls-78 {
        fill: #88888c;
      }

      .cls-79 {
        fill: #232b33;
      }

      .cls-80 {
        fill: #292f39;
      }

      .cls-81 {
        fill: #25292f;
      }

      .cls-82 {
        fill: #849097;
      }

      .cls-83 {
        fill: #1c2128;
      }

      .cls-84 {
        fill: #212932;
      }

      .cls-85 {
        fill: #262e34;
      }

      .cls-86 {
        fill: #73747d;
      }

      .cls-87 {
        fill: #fcfcfc;
      }

      .cls-88 {
        fill: #242a30;
      }

      .cls-89 {
        fill: #74777a;
      }

      .cls-90 {
        fill: #505051;
      }

      .cls-91 {
        fill: #4c5159;
      }

      .cls-92 {
        fill: #fff;
        opacity: .7;
        stroke: #000;
        stroke-miterlimit: 10;
        stroke-width: .5px;
      }

      .cls-93 {
        fill: #303237;
      }

      .cls-94 {
        fill: #202832;
      }

      .cls-95 {
        fill: #737479;
      }

      .cls-96 {
        fill: #252b33;
      }

      .cls-97 {
        fill: #2c2e34;
      }

      .cls-98 {
        fill: #2f3439;
      }

      .cls-99 {
        fill: #2d313c;
      }

      .cls-100 {
        fill: #bbbdc2;
      }

      .cls-101 {
        fill: #1f282e;
      }
    </style>
  </defs>
  <path class="cls-40" d="M130.88,22.91c.62-.04,1.22,0,1.82.12.01.68-.18,1.31-.59,1.88-5.3,6.55-10.59,13.12-15.88,19.69-.35.55-.7,1.09-1.05,1.64-1.34,1.52-2.57,3.12-3.69,4.8-5.27,7.69-10.15,15.62-14.65,23.79-.33.89-.72,1.75-1.17,2.58-4.34,7.72-8.48,15.57-12.42,23.55l-.41.41c-.99.11-1.96.07-2.93-.12-1.07-.73-2.04-1.57-2.93-2.52-2.9-3.33-5.59-6.85-8.09-10.55-2.65-3.35-5.35-6.67-8.09-9.96-3.04-3.15-6.12-6.28-9.26-9.38-.65-.55-1.31-1.08-1.99-1.58-.11-.06-.23-.08-.35-.06-.05-.22-.13-.43-.23-.64.27-.81.66-1.55,1.17-2.23-.04-.04-.08-.08-.12-.12,2.42-3.75,5.35-7.07,8.79-9.96,1.11-.84,2.28-1.58,3.52-2.23.53-.11,1.04-.05,1.52.18,2.54,2.64,5.1,5.25,7.68,7.85,1.63,1.89,3.23,3.8,4.8,5.74.58.79,1.11,1.62,1.58,2.46.21.02.4-.02.59-.12.11-.4.25-.79.41-1.17,1.47-2.74,3.15-5.36,5.04-7.85,2.39-2.73,4.68-5.54,6.86-8.44,1.92-2.12,3.8-4.26,5.62-6.45.92-.96,1.89-1.82,2.93-2.58.23-.53.58-.97,1.05-1.35,2.9-2.55,5.87-5.01,8.91-7.38,4.65-3.24,9.61-5.9,14.88-7.97,2.22-.74,4.45-1.42,6.68-2.05Z"/>
  <path class="cls-87" d="M131.93,23.03c.24.03.4.17.47.41-.24.59-.53,1.16-.88,1.7-5.04,6.25-10.08,12.5-15.12,18.75-6.34,8.37-12.12,17.12-17.34,26.25-3.88,7.33-7.78,14.63-11.72,21.91-1.42,2.96-2.9,5.89-4.45,8.79-.22.39-.55.55-1,.47-.93.06-1.75-.2-2.46-.76-1.5-1.19-2.85-2.54-4.04-4.04-2.01-2.56-3.93-5.17-5.74-7.85-2.93-3.68-5.9-7.31-8.91-10.9-2.57-2.69-5.17-5.32-7.79-7.91-1.19-1.04-2.39-2.07-3.57-3.11-.08-.16-.08-.31,0-.47,2.8-5.46,6.77-9.89,11.89-13.3.57-.26,1.11-.56,1.64-.88.3.08.58.22.82.41,2.06,2.18,4.15,4.31,6.27,6.39,2.84,3.05,5.47,6.25,7.91,9.61.18.13.38.15.59.06,1.67-3.43,3.69-6.66,6.04-9.67,2.26-2.57,4.41-5.23,6.45-7.97,1.29-1.4,2.54-2.85,3.75-4.34,4.86-5.35,10.23-10.14,16.11-14.36,2.92-1.87,5.92-3.59,9.02-5.16,3.92-1.69,7.94-3.03,12.07-4.04Z"/>
  <path class="cls-11" d="M90.8,79.75c-.19.25-.43.45-.7.59-.19-.09-.27-.25-.23-.47.34.15.63.08.88-.23.05.03.07.07.06.12Z"/>
  <path class="cls-89" d="M91.39,79.98c-.08-.07-.15-.15-.23-.23-.06.13-.1.25-.12.35-.1-.1-.14-.21-.12-.35.13-.27.32-.48.59-.64.26.03.5-.09.7-.35.12-.08.23-.08.35,0-.11.17-.21.34-.29.53-.32.22-.61.46-.88.7Z"/>
  <path class="cls-69" d="M81.43,76.23c-1.84,1.24-3.66,2.53-5.45,3.87-.14-.04-.28-.1-.41-.18.1-.34.3-.61.59-.82,1.19-.93,2.44-1.77,3.75-2.52.38.02.7-.11.94-.41.22-.09.42-.07.59.06Z"/>
  <path class="cls-45" d="M95.02,74.12c.13.13.15.29.06.47-1.44,1.7-3.17,2.95-5.21,3.75.04-.28.06-.55.06-.82-3.34,1.6-6.52,3.54-9.55,5.8-.19.06-.39.08-.59.06,0-.17.03-.32.12-.47,1.34-1.08,2.75-2.08,4.22-2.99,2.23-1.31,4.49-2.56,6.8-3.75.34-.13.69-.21,1.05-.23,1.04-.58,2.06-1.18,3.05-1.82Z"/>
  <path class="cls-70" d="M86.11,76.11c.16,0,.23.08.23.23-1.67,1.15-3.35,2.3-5.04,3.46-.3.13-.62.23-.94.29-.02-.12,0-.24.06-.35,1.73-1.48,3.63-2.69,5.68-3.63Z"/>
  <path class="cls-65" d="M70.53,76.82h.47c-.1.51-.37.92-.82,1.23-.47.3-.96.56-1.46.76-.3-.02-.35-.14-.18-.35.67-.55,1.33-1.1,1.99-1.64Z"/>
  <path class="cls-17" d="M64.43,76.82c.09-.08.21-.11.35-.12.18.02.3.09.35.23-.23-.08-.46-.12-.7-.12Z"/>
  <path class="cls-99" d="M79.08,74.24c.1-.02.18.02.23.12-.12.11-.12.19,0,.23-2.32,1.75-4.67,3.49-7.03,5.21-.45.2-.88.44-1.29.7-.17.09-.33.07-.47-.06.17-.23.37-.45.59-.64,2.58-1.97,5.23-3.83,7.97-5.57Z"/>
  <path class="cls-90" d="M68.77,75.18c.06.16.17.24.35.23-.58.44-1.2.81-1.88,1.11-.21.06-.4.02-.59-.12.62-.56,1.32-.97,2.11-1.23Z"/>
  <path class="cls-95" d="M86.35,76.35c0-.16-.08-.23-.23-.23.42-.33.89-.6,1.41-.82.18.13.22.26.12.41-.34.2-.67.42-1,.64-.04-.08-.08-.16-.12-.23-.03.11-.09.19-.18.23Z"/>
  <path class="cls-24" d="M81.54,75.64c.04.17.16.27.35.29-.11.17-.27.27-.47.29-.17-.13-.36-.15-.59-.06-.24.3-.55.43-.94.41.51-.37,1.05-.68,1.64-.94Z"/>
  <path class="cls-64" d="M81.54,75.64c.3-.26.65-.45,1.05-.59.09.04.17.09.23.18-.14.16-.3.3-.47.41-.27-.11-.54-.11-.82,0Z"/>
  <path class="cls-62" d="M88.34,74.82c.29.1.31.26.06.47-.09-.07-.19-.13-.29-.18.1-.08.18-.18.23-.29Z"/>
  <path class="cls-23" d="M70.29,74.47c.17.11.36.15.59.12-.62.24-1.21.51-1.76.82-.18,0-.3-.07-.35-.23.46-.33.97-.56,1.52-.7Z"/>
  <path class="cls-59" d="M77.68,72.71h.35c.03.19-.01.37-.12.53-1.13.8-2.3,1.52-3.52,2.17-.16-.25-.12-.46.12-.64,1.03-.75,2.08-1.43,3.16-2.05Z"/>
  <path class="cls-32" d="M89.75,74.12c.15,0,.26.05.35.18-.21.14-.39.31-.53.53-.09-.27-.03-.51.18-.7Z"/>
  <path class="cls-78" d="M79.32,74.59c-.12-.05-.12-.13,0-.23-.05-.09-.13-.13-.23-.12.48-.44,1.03-.79,1.64-1.05.09.04.17.09.23.18-.14.11-.24.24-.29.41-.05-.05-.11-.09-.18-.12-.36.36-.75.68-1.17.94Z"/>
  <path class="cls-1" d="M71.82,73.42c.37.01.49.17.35.47-.41.26-.84.5-1.29.7-.22.03-.42,0-.59-.12.48-.38.99-.73,1.52-1.05Z"/>
  <path class="cls-6" d="M58.69,69.9c1.7,1.5,3.18,3.18,4.45,5.04-.24.02-.47,0-.7-.06-1.4-1.53-2.77-3.08-4.1-4.63-.01-.22.05-.26.18-.12.03-.11.09-.19.18-.23Z"/>
  <path class="cls-39" d="M73.93,72.48c-.05.11-.13.21-.23.29.07.05.15.07.23.06-.6.38-1.19.73-1.76,1.05.13-.3.02-.46-.35-.47-.01-.12.03-.21.12-.29.65-.23,1.3-.49,1.93-.76.05.03.07.07.06.12Z"/>
  <path class="cls-81" d="M95.37,71.54h.23c-.79,1.14-1.8,2.04-3.05,2.7-.16-.06-.24-.18-.23-.35.23-.7.58-1.33,1.05-1.88.19-.03.37.01.53.12.11-.1.19-.21.23-.35.05.14.13.25.23.35.3-.09.55-.24.76-.47.08-.04.16-.08.23-.12Z"/>
  <path class="cls-77" d="M73.93,72.83c-.09.02-.16,0-.23-.06.1-.08.18-.18.23-.29.11-.08.14-.2.12-.35h.47c-.04.35-.23.59-.59.7Z"/>
  <path class="cls-75" d="M95.84,65.1c.1-.02.18.02.23.12-.24.21-.43.45-.59.7-2.22,1.09-4.37,2.32-6.45,3.69-.3.17-.61.31-.94.41-.74,1.19-1.5,2.36-2.29,3.52-.28.37-.62.62-1,.76-.13-.2-.15-.42-.06-.64,2.22-3.2,4.49-6.36,6.8-9.49.22-.18.48-.26.76-.23.02.2,0,.39-.06.59-1,1.28-1.96,2.58-2.87,3.93,1.29-.7,2.57-1.45,3.87-2.23.9-.41,1.76-.78,2.58-1.11Z"/>
  <path class="cls-29" d="M95.14,71.66c-.21.23-.46.38-.76.47-.11-.1-.19-.21-.23-.35-.05.14-.13.25-.23.35-.16-.1-.33-.14-.53-.12.5-.23,1-.47,1.52-.7.17.06.24.18.23.35Z"/>
  <path class="cls-18" d="M92.68,69.43c.2.08.39.16.59.23-1.52.88-3.04,1.76-4.57,2.64-.32.22-.67.32-1.05.29-.02-.12,0-.24.06-.35,1.57-1.11,3.23-2.04,4.98-2.81Z"/>
  <path class="cls-36" d="M95.61,71.54h-.23v-.47c.29-.04.54-.15.76-.35.18.13.18.28,0,.47-.19.1-.37.22-.53.35Z"/>
  <path class="cls-4" d="M96.78,67.68c-.23.19-.46.39-.7.59-.07-.02-.13-.06-.18-.12-.29.37-.59.72-.88,1.05.14-.19.12-.34-.06-.47-.23.16-.48.26-.76.29-.09.08-.13.18-.12.29-.28.09-.56.21-.82.35-.2-.08-.39-.16-.59-.23,1.29-.74,2.65-1.33,4.1-1.76Z"/>
  <path class="cls-10" d="M56.46,67.56c.39.67.88,1.17,1.46,1.52.04.12.08.23.12.35l.12-.12c.12.25.3.45.53.59-.08.05-.14.13-.18.23-.13-.14-.19-.1-.18.12-.14-.25-.35-.41-.64-.47-.08-.19-.06-.36.06-.53-.19-.27-.44-.44-.76-.53l-.12.12c-.32-.3-.61-.61-.88-.94-.02-.1.02-.18.12-.23.14.04.14.1,0,.18.11.06.23.08.35.06v-.35Z"/>
  <path class="cls-56" d="M73.93,67.56h.35c.02.29-.03.57-.18.82-1.64,1.64-3.47,3-5.51,4.1-.15-.01-.25-.09-.29-.23.21-.27.45-.53.7-.76,1.77-1.17,3.41-2.48,4.92-3.93Z"/>
  <path class="cls-13" d="M95.02,69.2c-.08.12-.16.23-.23.35-.12-.38-.35-.46-.7-.23-.01-.12.03-.21.12-.29.28-.04.53-.13.76-.29.18.12.2.28.06.47Z"/>
  <path class="cls-94" d="M88.93,63.93c.14-.03.25.01.35.12-1.49,2.38-3.17,4.63-5.04,6.74-.24.24-.43.22-.59-.06,1.29-1.81,2.59-3.61,3.93-5.39.47-.45.92-.92,1.35-1.41Z"/>
  <path class="cls-53" d="M96.78,67.68c.19.1.39.19.59.29-.13.38-.36.65-.7.82l.12.12c-.16.23-.31.47-.47.7-.48.35-.97.69-1.46,1-.1-.02-.2-.04-.29-.06.17-.31.25-.64.23-1,.08-.12.16-.23.23-.35.29-.34.59-.69.88-1.05.05.05.11.09.18.12.24-.2.48-.39.7-.59Z"/>
  <path class="cls-70" d="M60.57,65.1c.38.42.78.85,1.17,1.29.36.23.7.5,1,.82.05-.03.07-.07.06-.12,1.39,1.22,2.74,2.5,4.04,3.87.24.3.45.61.64.94-.08.13-.17.25-.29.35-1.49-1.41-2.97-2.82-4.45-4.22-.94.51-1.81,1.02-2.64,1.52-.16-.13-.22-.28-.18-.47.8-.51,1.56-1.05,2.29-1.64-.7-.66-1.41-1.33-2.11-1.99-.07-.26-.19-.49-.35-.7l.12-.12c.22.2.45.35.7.47Z"/>
  <path class="cls-22" d="M72.17,64.39c.24,0,.4.11.47.35-1.03,1.83-2.43,3.29-4.22,4.39-.15.06-.31.08-.47.06-.02-.12,0-.24.06-.35,1.58-1.32,2.96-2.81,4.16-4.45Z"/>
  <path class="cls-98" d="M67.6,63.69c.1.09.18.21.23.35-.85.85-1.79,1.6-2.81,2.23.55.57,1.08,1.15,1.58,1.76.13.22.19.45.18.7-.32.03-.59-.07-.82-.29-.68-.8-1.41-1.56-2.17-2.29-.2-.24-.34-.51-.41-.82.03-.3.19-.4.47-.29.26.28.53.53.82.76.92-.81,1.9-1.51,2.93-2.11Z"/>
  <path class="cls-61" d="M60.57,65.1c0-.08.04-.12.12-.12.24.2.51.33.82.41-.11.08-.13.18-.06.29.51.41.96.88,1.35,1.41,0,.05-.01.09-.06.12-.3-.32-.63-.59-1-.82-.4-.44-.79-.86-1.17-1.29Z"/>
  <path class="cls-73" d="M99.36,64.16c.14.1.14.21,0,.35.04.12.12.2.23.23-.37.58-.83,1.07-1.41,1.46-.71.13-.88-.12-.53-.76.23-.41.49-.8.76-1.17.3-.1.62-.14.94-.12Z"/>
  <path class="cls-20" d="M59.16,62.17c.07.03.11.09.12.18-.16.19-.24.4-.23.64-.13.01-.21.09-.23.23.2.35.47.63.82.82.11.08.14.2.12.35.16.02.32,0,.47-.06.68-.41,1.34-.82,1.99-1.23.12.28.28.3.47.06l-.12-.12c.15-.06.31-.08.47-.06,0,.18-.08.31-.23.41-.73.5-1.44,1.03-2.11,1.58-.08,0-.12.04-.12.12-.25-.12-.49-.27-.7-.47l-.12.12c.16.21.28.45.35.7-.71.49-1.42,1.02-2.11,1.58-.21.09-.4.07-.59-.06.59-.84,1.34-1.53,2.23-2.05l-1.17-1.17c-.12-.08-.23-.08-.35,0-.82.74-1.64,1.48-2.46,2.23-.19.15-.39.21-.59.18.47.48.94.95,1.41,1.41v.35c-.12.02-.24,0-.35-.06.14-.08.14-.14,0-.18-.09.05-.13.13-.12.23-.52-.39-1.01-.82-1.46-1.29-.18-.27-.2-.54-.06-.82.24-.09.47-.18.7-.29,1.04-1.02,2.09-2.02,3.16-2.99.25-.18.53-.3.82-.35Z"/>
  <path class="cls-37" d="M95.84,65.1c.2-.16.39-.14.59.06-.25.34-.56.59-.94.76.15-.26.35-.49.59-.7-.05-.09-.13-.13-.23-.12Z"/>
  <path class="cls-58" d="M70.64,63.34c.16.1.27.23.35.41-.86,1.17-1.92,2.13-3.16,2.87-.39-.1-.45-.29-.18-.59,1.02-.88,2.02-1.78,2.99-2.7Z"/>
  <path class="cls-41" d="M89.04,55.84c.61-.04.74.2.41.7-3.22,4.88-6.27,9.88-9.14,15-.17.47-.51.66-1,.59.57-1.26,1.17-2.51,1.82-3.75,2.54-4.25,5.18-8.43,7.91-12.54Z"/>
  <path class="cls-48" d="M55.41,63.11c-.21.27-.49.49-.82.64-.22.17-.38.38-.47.64-.14.11-.3.15-.47.12-.03-.71.24-1.25.82-1.64.15.13.29.1.41-.12.07.28.24.39.53.35Z"/>
  <path class="cls-86" d="M99.59,64.75c-.11-.04-.19-.11-.23-.23.14-.14.14-.26,0-.35,0-.18.08-.31.23-.41.34-.03.64-.17.88-.41.08.06.14.14.18.23-.31.43-.67.82-1.05,1.17Z"/>
  <path class="cls-72" d="M59.04,62.99c-.09.11-.11.23-.06.35l.12-.12c.24.24.41.51.53.82-.35-.19-.62-.47-.82-.82.03-.14.11-.22.23-.23Z"/>
  <path class="cls-42" d="M63.03,62.99c-.16-.02-.32,0-.47.06l.12.12c-.19.24-.35.22-.47-.06.17-.14.36-.26.59-.35.12.04.2.12.23.23Z"/>
  <path class="cls-44" d="M69.36,61.46c.4.06.54.3.41.7-.35.27-.6.6-.76,1-.47.12-.68-.06-.64-.53.3-.44.63-.83,1-1.17Z"/>
  <path class="cls-47" d="M57.4,61.11c-.17.27-.35.54-.53.82-.58.29-1.07.68-1.46,1.17-.28.04-.46-.07-.53-.35-.12.21-.26.25-.41.12.55-.78,1.21-1.45,1.99-1.99.16-.14.33-.26.53-.35.34.19.36.41.06.64.13.06.24.04.35-.06Z"/>
  <path class="cls-71" d="M61.27,60.41c.08-.11.2-.14.35-.12.02.2,0,.39-.06.59-.79.77-1.63,1.48-2.52,2.11,0-.24.07-.46.23-.64,0-.09-.05-.15-.12-.18.03-.22.15-.38.35-.47-.18.22-.14.37.12.47.7-.37,1.27-.88,1.7-1.52.1.16.16.14.18-.06-.04-.12-.12-.18-.23-.18Z"/>
  <path class="cls-88" d="M102.4,58.18h.35c-.16.51-.35,1.02-.59,1.52-.27.53-.62,1.02-1.05,1.46l.12.12c-.28.18-.44.44-.47.76-.33.42-.76.69-1.29.82-.13-.14-.15-.3-.06-.47.82-1.54,1.81-2.95,2.99-4.22Z"/>
  <path class="cls-97" d="M61.27,60.41c.12,0,.2.06.23.18-.01.2-.07.22-.18.06-.43.65-1,1.15-1.7,1.52-.26-.1-.3-.25-.12-.47.49-.56,1.07-.99,1.76-1.29Z"/>
  <path class="cls-63" d="M95.14,60.29c.05,0,.09.01.12.06-.27.33-.47.7-.59,1.11-.15-.49,0-.88.47-1.17Z"/>
  <path class="cls-16" d="M57.4,61.11c-.11.09-.23.11-.35.06.3-.24.28-.45-.06-.64-.19.1-.37.21-.53.35.09-.36.32-.55.7-.59.11.22.25.25.41.12.4.33.34.57-.18.7Z"/>
  <path class="cls-27" d="M67.01,58.65h.47c.02.2,0,.39-.06.59-.48.64-1.01,1.24-1.58,1.82-.15.06-.31.08-.47.06-.01-.26.02-.52.12-.76.58-.52,1.08-1.08,1.52-1.7Z"/>
  <path class="cls-74" d="M103.46,58.77c-.51.76-.99,1.54-1.46,2.34-.4.34-.81.65-1.23.94.03-.32.18-.58.47-.76l-.12-.12c.43-.45.78-.93,1.05-1.46.54-.25.95-.64,1.23-1.17.05.07.07.15.06.23Z"/>
  <path class="cls-35" d="M102.4,58.18c.05-.07.13-.11.23-.12.25.15.52.25.82.29.15.15.15.29,0,.41.02-.09,0-.16-.06-.23-.28.53-.69.92-1.23,1.17.23-.5.43-1.01.59-1.52h-.35Z"/>
  <path class="cls-7" d="M65.14,57.01c.22.02.38.14.47.35-.1.33-.24.64-.41.94-.61.65-1.25,1.25-1.93,1.82-.23.06-.47.08-.7.06-.01-.25.04-.49.18-.7.86-.75,1.66-1.58,2.4-2.46Z"/>
  <path class="cls-93" d="M61.86,56.89c.11.15.23.15.35,0,.13.14.15.3.06.47-.21.33-.46.62-.76.88-.69.52-1.35,1.07-1.99,1.64-.24-.08-.48-.12-.7-.12.55-.7,1.25-1.33,2.11-1.88.34-.32.65-.65.94-1Z"/>
  <path class="cls-21" d="M94.67,61.46c.12-.41.31-.78.59-1.11-.03-.05-.07-.07-.12-.06.62-1.01,1.31-1.99,2.05-2.93.24-.28.51-.51.82-.7.26.07.33.22.23.47-1,1.48-2.08,2.91-3.22,4.28-.11.06-.23.08-.35.06Z"/>
  <path class="cls-38" d="M60.92,54.9c.15,0,.26.05.35.18,0,.22-.1.43-.29.64-.86,1.02-1.8,1.95-2.81,2.81-.35-.17-.39-.41-.12-.7.9-1.04,1.86-2.01,2.87-2.93Z"/>
  <path class="cls-52" d="M97.83,53.14c.1.09.18.21.23.35-1.23,1.99-2.66,3.83-4.28,5.51-.22-.1-.3-.25-.23-.47,1.05-1.51,2.12-2.99,3.22-4.45.28-.39.64-.71,1.05-.94Z"/>
  <path class="cls-49" d="M63.5,54.9h.35c.06.51-.16.86-.64,1.05-.19-.41-.09-.76.29-1.05Z"/>
  <path class="cls-3" d="M107.21,52.56c.2.04.26.16.18.35-.85,1.35-1.82,2.6-2.93,3.75-.27-.21-.34-.49-.23-.82.43-.83.95-1.59,1.58-2.29.61-.12,1.08-.46,1.41-1Z"/>
  <path class="cls-19" d="M93.73,52.68c-.09-.13-.21-.15-.35-.06-.53.52-1.04,1.04-1.52,1.58-.12-.05-.12-.13,0-.23.45-.51.92-1,1.41-1.46.18-.12.37-.18.59-.18.03.15-.01.27-.12.35Z"/>
  <path class="cls-47" d="M93.73,52.68c-.47.81-1.02,1.57-1.64,2.29-.21.09-.4.07-.59-.06.06-.27.18-.51.35-.7.48-.54.99-1.07,1.52-1.58.15-.09.26-.07.35.06Z"/>
  <path class="cls-85" d="M102.29,47.64h.35c.02.2,0,.39-.06.59-.79,1.14-1.53,2.31-2.23,3.52-.37.35-.59.27-.64-.23.06-.42.19-.81.41-1.17.66-.95,1.38-1.85,2.17-2.7Z"/>
  <path class="cls-80" d="M112.36,45.64c.51-.11.82-.43.94-.94.58-.16.72.03.41.59-1.05,1.43-2.12,2.83-3.22,4.22-.19.25-.38.27-.59.06.13-.56.35-1.08.64-1.58.63-.76,1.24-1.54,1.82-2.34Z"/>
  <path class="cls-34" d="M112.95,42.83h.47c-.08.43-.26.82-.53,1.17-2,2.59-4.09,5.11-6.27,7.56-.15.06-.31.08-.47.06.1-.28.24-.56.41-.82,1.8-2.34,3.59-4.69,5.39-7.03.32-.34.65-.65,1-.94Z"/>
  <path class="cls-33" d="M113.3,44.71c-.12.51-.43.82-.94.94.27-.29.53-.61.76-.94.08-.15.14-.15.18,0Z"/>
  <path class="cls-15" d="M104.16,44.47h.47c.03.58-.2,1.03-.7,1.35-.33.14-.67.27-1,.41-.21-.22-.21-.46,0-.7.43-.34.84-.69,1.23-1.05Z"/>
  <path class="cls-79" d="M113.42,38.03h.35c-.02.24-.08.48-.18.7-3.31,3.91-6.49,7.89-9.55,11.95-.61.42-.79.3-.53-.35.39-.62.78-1.25,1.17-1.88,2.85-3.54,5.76-7.01,8.73-10.43Z"/>
  <path class="cls-67" d="M117.05,38.03h1.05c-.16.51-.41.98-.76,1.41l-1.23,1.23c-.37.19-.76.27-1.17.23.69-.97,1.39-1.93,2.11-2.87Z"/>
  <path class="cls-50" d="M105.92,38.03c.17-.03.33,0,.47.12-.1.2-.2.39-.29.59-1.29,1.45-2.66,2.82-4.1,4.1-.86,1.05-1.74,2.08-2.64,3.11-.42.07-.56-.1-.41-.53,2.06-2.7,4.38-5.16,6.97-7.38Z"/>
  <path class="cls-60" d="M120.45,35.57c-.42.88-1.12,1.24-2.11,1.05-.02-.12,0-.24.06-.35.36-.42.69-.84,1-1.29.13,0,.24-.04.35-.12.12.16.28.24.47.23-.03-.17,0-.33.12-.47.11.3.15.62.12.94Z"/>
  <path class="cls-57" d="M120.45,35.57c.04-.32,0-.63-.12-.94-.11.14-.15.3-.12.47-.19,0-.35-.08-.47-.23-.11.07-.22.11-.35.12.31-.49.76-.72,1.35-.7.11.09.17.21.18.35-.1.35-.25.66-.47.94Z"/>
  <path class="cls-25" d="M115.76,30.06h.35c.03.17,0,.33-.12.47-1.88,1.52-3.75,3.05-5.62,4.57-.34.23-.69.42-1.05.59-.26,0-.36-.12-.29-.35,2.1-1.97,4.35-3.73,6.74-5.27Z"/>
  <path class="cls-83" d="M123.03,31.93h.59c-.34.84-.96,1.34-1.88,1.52-.33-.04-.4-.2-.23-.47.29-.31.62-.54,1-.7l.12.12c.13-.17.27-.33.41-.47Z"/>
  <path class="cls-54" d="M126.31,28.54c-.6.44-1.07.99-1.41,1.64-.36.67-.9.92-1.64.76.09-.25.19-.51.29-.76.55-.7,1.09-1.41,1.64-2.11.39-.36.84-.54,1.35-.53.18.39.11.72-.23,1Z"/>
  <path class="cls-100" d="M126.31,28.54c.14.17.08.29-.18.35-.01.35-.19.5-.53.47-.15.34-.38.62-.7.82.34-.65.81-1.2,1.41-1.64Z"/>
  <path class="cls-51" d="M129.36,24.79c.26-.02.45.07.59.29-.15.27-.34.5-.59.7-.53.36-1.07.69-1.64,1-.12-.16-.23-.16-.35,0-.13-.08-.25-.17-.35-.29.68-.71,1.46-1.28,2.34-1.7Z"/>
  <path class="cls-91" d="M89.86,79.86c-.03.22.05.38.23.47-.22.14-.43.3-.64.47-.13-.12-.19-.26-.18-.41-.11-.04-.21-.1-.29-.18-.08.09-.18.13-.29.12.29-.36.69-.52,1.17-.47Z"/>
  <path class="cls-101" d="M64.43,76.82c.24,0,.48.04.7.12,1.56,2,3.16,3.97,4.8,5.92-.13.07-.27.13-.41.18-.54-.3-1-.69-1.41-1.17-1.2-1.42-2.37-2.87-3.52-4.34-.13-.22-.19-.45-.18-.7Z"/>
  <path class="cls-96" d="M90.8,79.75h.12c-.03.14.01.25.12.35.02-.11.06-.22.12-.35.08.09.16.17.23.23.12.15.1.31-.06.47-.67.79-1.44,1.47-2.29,2.05-.19.06-.39.08-.59.06.01-.26.09-.49.23-.7-.04-.14-.1-.14-.18,0-1.18,1.71-2.28,3.46-3.28,5.27-.17.19-.38.27-.64.23.04-.28.1-.55.18-.82.97-1.79,1.98-3.55,3.05-5.27.24-.38.53-.69.88-.94.12.01.21-.03.29-.12.09.07.19.13.29.18-.01.15.04.29.18.41.21-.17.43-.33.64-.47.28-.14.51-.33.7-.59Z"/>
  <path class="cls-55" d="M73.11,81.97c.13.01.21.09.23.23-.12.22-.22.45-.29.7-.69.56-1.34,1.08-1.93,1.58.53.66,1,1.3,1.41,1.93-.23.13-.46.15-.7.06-.41-.54-.88-1.03-1.41-1.46-.33.23-.69.27-1.05.12.33-.35.6-.74.82-1.17.25,0,.48-.06.7-.18.74-.61,1.49-1.21,2.23-1.82Z"/>
  <path class="cls-76" d="M78.38,83.73c.07.03.11.09.12.18-.39.93-.97,1.71-1.76,2.34-.15.06-.31.08-.47.06.01-.27.11-.5.29-.7.55-.69,1.16-1.31,1.82-1.88Z"/>
  <path class="cls-28" d="M89.51,83.14c.14-.03.25.01.35.12-.68,1.42-1.58,2.69-2.7,3.81-.29.25-.57.23-.82-.06.41-.97.93-1.87,1.58-2.7.31-.32.68-.53,1.11-.64.14-.2.3-.37.47-.53Z"/>
  <path class="cls-66" d="M73.57,88.07c.41.06.69.3.82.7-.12-.01-.21.03-.29.12-.2-.26-.38-.53-.53-.82Z"/>
  <path class="cls-9" d="M73.34,87.83c.16,0,.23.08.23.23.15.29.33.56.53.82.08-.09.18-.13.29-.12-.1.17-.1.33,0,.47-.64.19-1.07-.05-1.29-.7.14-.21.22-.44.23-.7Z"/>
  <path class="cls-82" d="M73.34,87.83c-.01.26-.09.49-.23.7-.11-.21-.15-.44-.12-.7h.35Z"/>
  <path class="cls-43" d="M87.52,87.95c.1-.02.18.02.23.12-.07.24-.22.36-.47.35-.38,1.36-1.28,2.3-2.7,2.81-.03-.6.13-1.14.47-1.64.81-.58,1.63-1.13,2.46-1.64Z"/>
  <path class="cls-26" d="M83.89,89.47c.12,0,.2.06.23.18-.12.19-.23.39-.35.59l.12.12c-.26.05-.33.17-.23.35-.2.39-.48.72-.82,1-.04-.06-.08-.12-.12-.18.29-.75.68-1.43,1.17-2.05Z"/>
  <path class="cls-84" d="M76.74,93.11c-.17-.07-.32-.25-.47-.53.16-.12.16-.23,0-.35.1-.32.2-.34.29-.06.15-.24.16-.47.06-.7.64-1.54,1.4-3.02,2.29-4.45.25-.41.5-.43.76-.06-.86,1.79-1.76,3.56-2.7,5.33.1.31.02.59-.23.82Z"/>
  <path class="cls-81" d="M78.85,94.39c-.44.42-.44.83,0,1.23-.06.08-.14.14-.23.18-.27-.23-.54-.47-.82-.7.09-.32.2-.63.35-.94.92-2.08,1.88-4.15,2.87-6.21.27-.52.56-.56.88-.12-1.08,2.16-2.1,4.35-3.05,6.56Z"/>
  <path class="cls-2" d="M76.62,91.46c.11.23.09.46-.06.7-.09-.28-.19-.26-.29.06.16.12.16.23,0,.35.14.28.3.45.47.53-.15.13-.29.1-.41-.12-.36-.49-.69-1-1-1.52.07-.68.32-.72.76-.12.13.55.3.58.53.12Z"/>
  <path class="cls-30" d="M85.76,91.7c.22.08.27.24.18.47-.44.49-.82,1.04-1.11,1.64-.48.5-1.07.77-1.76.82-.14-.33-.08-.64.18-.94.55-.63,1.19-1.12,1.93-1.46.2-.18.4-.35.59-.53Z"/>
  <path class="cls-5" d="M81.43,92.99c.09-.02.16,0,.23.06-.13.09-.13.18,0,.29-.3.6-.54,1.23-.7,1.88-.42,0-.69-.19-.82-.59.09-.53.35-.96.76-1.29l.12.12c.04-.36.12-.4.23-.12.06-.12.12-.24.18-.35Z"/>
  <path class="cls-68" d="M78.14,94.16c-.15.31-.26.62-.35.94.05-.39-.02-.79-.23-1.17-.37.04-.49-.1-.35-.41.23,0,.47.04.7.12-.03.19.04.37.23.53Z"/>
  <path class="cls-46" d="M78.85,94.39c.07.39.15.74.23,1.05-.13.46.04.77.53.94.09-.28.19-.26.29.06-.15.34-.33.32-.53-.06-.05.07-.07.15-.06.23-.24-.28-.48-.55-.7-.82.09-.03.17-.09.23-.18-.44-.4-.44-.81,0-1.23Z"/>
  <path class="cls-12" d="M79.2,95.45c.22.15.46.27.7.35-.22,0-.36.13-.41.35-.15-.21-.25-.44-.29-.7Z"/>
  <path class="cls-14" d="M79.9,95.8c.32.32.59.67.82,1.05-.19-.11-.36-.11-.53,0-.12-.35-.21-.7-.29-1.05Z"/>
  <path class="cls-31" d="M79.08,95.45h.12c.04.26.14.49.29.7.05-.23.19-.34.41-.35.08.35.18.71.29,1.05.17-.11.34-.11.53,0,0,.18-.08.31-.23.41.09.16.14.34.18.53.04-.12.08-.23.12-.35.03.23.09.44.18.64-.06.11-.14.21-.23.29-.72-.38-1.19-.96-1.41-1.76-.02-.09,0-.16.06-.23.2.38.38.4.53.06-.1-.32-.2-.34-.29-.06-.48-.17-.66-.48-.53-.94Z"/>
  <path class="cls-8" d="M83.42,95.92c.17,0,.33.07.47.18-.3.54-.73,1.05-1.29,1.52-.22.13-.45.19-.7.18,0-.32.07-.61.23-.88l-.12-.12c.18-.16.33-.33.47-.53.34-.09.65-.21.94-.35Z"/>
  <g>
    <path class="cls-92" d="M48.78,4.35c5.35,1.84,9.25,4.75,11.71,8.72l-5.41,3.98c-2.46-3.97-6.36-6.88-11.71-8.72l5.41-3.98Z"/>
    <path class="cls-92" d="M15.03,52.74c2.58-1.13,7.58-.24,15,2.66l-1.02,5.77c-7.42-2.9-12.42-3.79-15-2.66l1.02-5.77Z"/>
    <path class="cls-92" d="M14.01,89.38c5.34-3.61,13.78-6.68,25.33-9.22l2,5.51c-11.55,2.54-19.99,5.61-25.33,9.22l-2-5.51Z"/>
    <path class="cls-92" d="M48.52,111.6c1.53-3.55,4.16-5.78,7.89-6.68l4.14,4.98c-3.73.9-6.36,3.13-7.89,6.68l-4.14-4.98Z"/>
    <path class="cls-92" d="M119.4,9.09c1.56-3.13,4.05-5.01,7.49-5.64l3.53,4.68c-3.44.63-5.93,2.51-7.49,5.64l-3.53-4.68Z"/>
    <path class="cls-92" d="M143.36,25.9c5.24-2.22,11.44-2.98,18.61-2.29l.71,5.82c-7.17-.69-13.37.07-18.61,2.29l-.71-5.82Z"/>
    <path class="cls-92" d="M123.99,81.71c6.3,1.34,11.92,4.08,16.85,8.22l-2.57,5.27c-4.93-4.14-10.55-6.88-16.85-8.22l2.57-5.27Z"/>
    <path class="cls-92" d="M107.24,104.64c5.27,2.24,9.38,5.29,12.32,9.16l-4.37,3.06c-2.94-3.87-7.05-6.92-12.32-9.16l4.37-3.06Z"/>
    <path class="cls-92" d="M23.81,20.65c4.18.59,10.62,4.4,19.32,11.41l-4.54,4.36c-8.7-7.01-15.14-10.82-19.32-11.41l4.54-4.36Z"/>
    <path class="cls-92" d="M135.74,55.16c9.73.67,18.65,2.81,26.76,6.41l-3.04,5.51c-8.11-3.61-17.03-5.74-26.76-6.41l3.04-5.51Z"/>
  </g>
</svg>